<svg width="44" height="44" viewBox="0 0 44 44" fill="none" xmlns="http://www.w3.org/2000/svg">
<circle cx="22" cy="22" r="21.45" fill="white" stroke="#ECECEC" strokeWidth="1.10003"/>
<circle cx="3.80793" cy="3.80793" r="3.80793" transform="matrix(-1 0 0 1 26.1229 14.4871)" stroke="black" strokeWidth="1.42797"/>
<path d="M15.6511 27.7526C15.6511 26.9335 16.1659 26.2029 16.9373 25.9274V25.9274C20.4148 24.6854 24.2151 24.6854 27.6926 25.9274V25.9274C28.4639 26.2029 28.9788 26.9335 28.9788 27.7526V29.0049C28.9788 30.1353 27.9776 31.0037 26.8586 30.8438L25.95 30.714C23.5389 30.3696 21.091 30.3696 18.6799 30.714L17.7713 30.8438C16.6523 31.0037 15.6511 30.1353 15.6511 29.0049V27.7526Z" stroke="black" strokeWidth="1.42797"/>
</svg>
