<svg width="44" height="44" viewBox="0 0 44 44" fill="none" xmlns="http://www.w3.org/2000/svg">
<rect width="44" height="44" rx="10" fill="white"/>
<circle cx="3.80793" cy="3.80793" r="3.80793" transform="matrix(-1 0 0 1 25.4717 14)" stroke="black" strokeWidth="1.42797"/>
<path d="M15 27.2653C15 26.4462 15.5149 25.7156 16.2862 25.4401V25.4401C19.7638 24.1981 23.564 24.1981 27.0415 25.4401V25.4401C27.8129 25.7156 28.3278 26.4462 28.3278 27.2653V28.5176C28.3278 29.648 27.3266 30.5164 26.2075 30.3565L25.2989 30.2267C22.8878 29.8823 20.44 29.8823 18.0289 30.2267L17.1203 30.3565C16.0012 30.5164 15 29.648 15 28.5176V27.2653Z" stroke="black" strokeWidth="1.42797"/>
</svg>
