<svg width="48" height="49" viewBox="0 0 48 49" fill="none" xmlns="http://www.w3.org/2000/svg">
<rect x="0.5" y="1" width="47" height="47" rx="23.5" stroke="#ABABAB"/>
<g clip-path="url(#clip0_1681_4362)">
<path fill-rule="evenodd" clip-rule="evenodd" d="M17.4916 14.558C17.0088 14.663 16.9158 14.7358 15.654 15.998C14.553 17.0994 14.4678 17.1947 14.3386 17.4687C14.1258 17.9202 14.0726 18.1655 14.0496 18.8039C14.0339 19.2368 14.0449 19.4762 14.0945 19.7805C14.4721 22.0994 15.9819 24.8379 18.4087 27.6054C18.9385 28.2096 20.2923 29.5632 20.8939 30.0901C23.5546 32.421 26.1305 33.8981 28.3548 34.3685C28.7894 34.4605 28.9526 34.4758 29.4876 34.475C30.2072 34.4739 30.5238 34.4086 31.0032 34.1624C31.251 34.0351 31.4224 33.8803 32.4427 32.8624C33.67 31.638 33.7429 31.5459 33.8973 31.026C33.9785 30.7525 33.9785 30.2396 33.8973 29.966C33.7555 29.488 33.7106 29.4347 32.0516 27.7761C30.5562 26.281 30.4471 26.1807 30.169 26.0454C29.4023 25.6723 28.5797 25.8021 28.0067 26.3865C27.8105 26.5866 27.735 26.7038 27.5995 27.0185C27.4074 27.4644 27.2981 27.625 27.0267 27.8599C26.5184 28.2997 25.8249 28.4259 25.1321 28.2046C22.9343 27.5027 20.2497 24.5421 20.1433 22.703C20.1213 22.3226 20.2051 22.0035 20.4124 21.6781C20.5517 21.4595 20.8916 21.139 21.0758 21.0525C21.1476 21.0188 21.3558 20.9217 21.5384 20.8366C22.0747 20.5868 22.3774 20.258 22.5549 19.7322C22.6264 19.5206 22.6372 19.418 22.6228 19.0897C22.6024 18.6235 22.5117 18.3566 22.2613 18.0256C22.1678 17.9019 21.4351 17.1492 20.6331 16.3529C19.3328 15.0618 19.1445 14.8894 18.8922 14.7592C18.4258 14.5185 17.9724 14.4533 17.4916 14.558Z" fill="#676767"/>
</g>
<defs>
<clipPath id="clip0_1681_4362">
<rect width="20" height="20" fill="white" transform="translate(14 14.5)"/>
</clipPath>
</defs>
</svg>
