<svg width="179" height="141" viewBox="0 0 179 141" fill="none" xmlns="http://www.w3.org/2000/svg">
<rect x="113.227" y="97.5156" width="85.2947" height="83.4095" rx="16.4013" transform="rotate(154 113.227 97.5156)" fill="#E6E6E6"/>
<rect x="65.0039" width="115.372" height="121.149" rx="16.4013" transform="rotate(11 65.0039 0)" fill="white"/>
<rect x="68.4873" y="5.75977" width="106.09" height="111.403" rx="15.0818" transform="rotate(11 68.4873 5.75977)" fill="#E9E9E9"/>
<rect x="80.127" y="23.0391" width="77.9432" height="81.8464" rx="11.0804" transform="rotate(11 80.127 23.0391)" fill="white"/>
<path d="M135.03 108.92L142.329 77.1166C142.541 76.1925 141.609 75.4222 140.741 75.8052L99.3793 94.0689C98.8669 94.2951 98.2661 94.1201 97.9555 93.6541L91.0454 83.289C90.7015 82.7732 90.0111 82.622 89.4832 82.9469L75.8914 91.311C75.6129 91.4825 75.4203 91.7642 75.3618 92.086L74.5042 96.8025C74.3918 97.4207 74.7956 98.0149 75.4117 98.1382L133.682 109.792C134.293 109.914 134.891 109.528 135.03 108.92Z" fill="#E9E9E9"/>
</svg>
