<svg width="145" height="145" viewBox="0 0 145 145" fill="none" xmlns="http://www.w3.org/2000/svg">
<path fillRule="evenodd" clipRule="evenodd" d="M59.2875 23.1003C58.6942 23.3595 57.8839 23.874 57.4864 24.244C56.3787 25.2752 33.8677 61.4311 33.5028 62.765C32.6021 66.0588 35.5312 69.5599 39.1978 69.572C41.0549 69.5785 42.3992 69.132 43.5388 68.1309C44.8795 66.9529 67.188 31.2829 67.6936 29.5086C68.3263 27.288 67.2514 24.8089 65.0825 23.4874C63.6204 22.5965 60.862 22.4123 59.2875 23.1003ZM78.4334 23.114C76.0407 24.1203 74.6309 26.3079 74.8448 28.6829C74.982 30.2085 74.7102 29.736 83.8754 44.3761C87.2953 49.8388 91.9396 57.2693 94.1964 60.8883C96.4532 64.5074 98.4878 67.6613 98.7176 67.8975C98.9473 68.1334 99.7493 68.6084 100.5 68.9528C104.38 70.7331 108.898 68.4378 109.252 64.5056C109.318 63.7759 109.227 62.7757 109.05 62.2831C108.874 61.7907 103.582 53.1464 97.29 43.0737C89.4857 30.5792 85.5527 24.5166 84.9128 23.9942C83.2469 22.6337 80.4718 22.2566 78.4334 23.114ZM11.962 61.9595C10.6593 62.3397 8.57078 64.3172 8.21079 65.5115C7.55174 67.6966 8.05789 69.6863 9.66264 71.2208C10.8583 72.3645 12.802 73.0553 14.8242 73.0553C15.6831 73.0553 16.0056 73.1643 16.11 73.4898C16.1865 73.7287 17.3426 77.7234 18.6787 82.3667C26.7866 110.543 28.7589 117.186 29.2168 117.864C30.1269 119.209 32.2821 120.937 33.9394 121.649L35.5574 122.344H107.298L109.092 121.531C111.192 120.579 113.304 118.604 113.968 116.972C114.21 116.376 115.743 111.251 117.375 105.583C119.007 99.9156 121.682 90.6414 123.32 84.9739C124.958 79.3063 126.372 74.3062 126.463 73.8622C126.621 73.0875 126.679 73.0553 127.897 73.0553C131.197 73.0553 133.745 71.4601 134.558 68.8842C135.4 66.2187 134.03 63.3922 131.338 62.2381C129.963 61.6486 129.805 61.638 122.388 61.6362L114.838 61.6345L114.816 64.0547C114.799 65.9495 114.661 66.7903 114.181 67.9263C113.48 69.5825 111.824 71.5667 110.181 72.7208C107.615 74.5232 103.362 75.2547 100.253 74.4286C96.1943 73.3497 94.3701 71.6896 90.7283 65.7596L88.1922 61.6295L54.4614 61.7574L51.8311 65.9786C48.6737 71.0457 47.3111 72.4653 44.3588 73.7634C42.3933 74.6278 42.1692 74.6692 39.4674 74.6692C36.7738 74.6692 36.5373 74.6258 34.6079 73.7773C29.9832 71.7435 27.1647 67.3033 27.752 62.9763L27.934 61.6332L20.4199 61.6586C15.7419 61.6745 12.5496 61.7879 11.962 61.9595ZM40.2125 83.6243C38.6401 84.41 38.6585 84.2317 38.6585 98.6421C38.6585 113.13 38.6126 112.709 40.2872 113.619C41.9497 114.524 44.4475 113.782 45.1921 112.163C45.4544 111.593 45.5348 108.391 45.5348 98.5065C45.5348 86.6308 45.4965 85.5303 45.0583 84.7919C44.2003 83.346 41.8855 82.7886 40.2125 83.6243ZM59.5882 83.7542C58.0444 84.8723 58.074 84.5838 58.074 98.502C58.074 112.641 58.0676 112.582 59.7432 113.522C60.8715 114.156 62.2764 114.162 63.3866 113.539C65.1502 112.549 65.1068 112.955 65.0245 98.2391L64.9504 84.9354L63.9432 84.0857C63.0841 83.3609 62.7421 83.2358 61.6201 83.2358C60.6938 83.2358 60.0919 83.3895 59.5882 83.7542ZM79.343 83.6539C77.7158 84.5838 77.7593 84.1694 77.7593 98.7347V112.046L78.6524 112.944C79.3964 113.691 79.772 113.861 80.9008 113.961C82.1315 114.07 82.3465 114.008 83.2404 113.285C83.7862 112.844 84.353 112.085 84.5132 111.581C84.7068 110.973 84.7745 106.5 84.7187 98.0099C84.6402 86.0525 84.607 85.3076 84.1238 84.6508C83.119 83.2859 80.824 82.8074 79.343 83.6539ZM98.7178 83.7659C97.1419 84.8482 97.1748 84.5314 97.1759 98.6803C97.1767 111.122 97.1988 111.7 97.7034 112.461C98.7089 113.98 100.845 114.461 102.487 113.539C104.251 112.549 104.208 112.955 104.125 98.2391L104.051 84.9354L103.044 84.0857C102.187 83.3626 101.845 83.237 100.752 83.2437C99.883 83.2489 99.2242 83.4183 98.7178 83.7659Z" fill="#EBEBEB"/>
<path d="M35 80H107V117H35V80Z" fill="#EBEBEB"/>
<path d="M85.5 93C89.8024 93 93 89.2509 93 85C93 80.7491 89.8024 77 85.5 77C81.1976 77 78 80.7491 78 85C78 89.2509 81.1976 93 85.5 93Z" fill="#EBEBEB" stroke="white" strokeWidth="4"/>
<path d="M57.5 93C61.8024 93 65 89.2509 65 85C65 80.7491 61.8024 77 57.5 77C53.1976 77 50 80.7491 50 85C50 89.2509 53.1976 93 57.5 93Z" fill="#EBEBEB" stroke="white" strokeWidth="4"/>
<mask id="path-5-outside-1_1471_10867" maskUnits="userSpaceOnUse" x="46" y="97" width="51" height="18" fill="black">
<rect fill="white" x="46" y="97" width="51" height="18"/>
<path fillRule="evenodd" clipRule="evenodd" d="M53.4478 108.895L51.8813 107.277C50.8426 108.021 50.7018 109.349 51.567 110.242C52.4312 111.135 53.9725 111.256 55.0112 110.515M55.0112 110.515L55.0195 110.509C55.0289 110.502 55.0458 110.49 55.0701 110.474C55.1186 110.44 55.1965 110.387 55.3023 110.318C55.514 110.178 55.8365 109.972 56.2577 109.722C57.1018 109.221 58.3331 108.546 59.8561 107.872C62.9281 106.51 67.0459 105.211 71.5 105.211C75.9541 105.211 80.0719 106.51 83.1439 107.872C84.6669 108.546 85.8982 109.221 86.7423 109.722C87.1635 109.972 87.486 110.178 87.6977 110.318C87.8035 110.387 87.8814 110.44 87.9299 110.474C87.9542 110.49 87.9711 110.502 87.9805 110.509L87.9857 110.512C87.986 110.513 87.9864 110.513 87.9867 110.513C87.987 110.513 87.9872 110.513 87.9875 110.514C87.9874 110.514 87.9875 110.514 87.9875 110.514L87.9887 110.515C87.9887 110.515 87.9887 110.515 87.9887 110.515C89.0274 111.256 90.5687 111.135 91.433 110.242C92.2982 109.349 92.1574 108.021 91.1187 107.277L89.5522 108.895C91.1187 107.277 91.1181 107.277 91.1175 107.276L91.1127 107.273L91.1037 107.266L91.0769 107.247C91.0551 107.232 91.0254 107.211 90.988 107.186C90.9133 107.134 90.8079 107.063 90.6732 106.974C90.4039 106.797 90.0171 106.55 89.5248 106.258C88.542 105.674 87.1295 104.901 85.3857 104.128C81.9242 102.595 77.0159 101 71.5 101C65.9841 101 61.0758 102.595 57.6142 104.128C55.8705 104.901 54.458 105.674 53.4752 106.258C52.9829 106.55 52.5961 106.797 52.3268 106.974C52.1921 107.063 52.0867 107.134 52.012 107.186C51.9746 107.211 51.9449 107.232 51.9231 107.247L51.8963 107.266L51.8873 107.273L51.8825 107.276C51.8819 107.277 51.8813 107.277 53.4478 108.895"/>
</mask>
<path fillRule="evenodd" clipRule="evenodd" d="M53.4478 108.895L51.8813 107.277C50.8426 108.021 50.7018 109.349 51.567 110.242C52.4312 111.135 53.9725 111.256 55.0112 110.515M55.0112 110.515L55.0195 110.509C55.0289 110.502 55.0458 110.49 55.0701 110.474C55.1186 110.44 55.1965 110.387 55.3023 110.318C55.514 110.178 55.8365 109.972 56.2577 109.722C57.1018 109.221 58.3331 108.546 59.8561 107.872C62.9281 106.51 67.0459 105.211 71.5 105.211C75.9541 105.211 80.0719 106.51 83.1439 107.872C84.6669 108.546 85.8982 109.221 86.7423 109.722C87.1635 109.972 87.486 110.178 87.6977 110.318C87.8035 110.387 87.8814 110.44 87.9299 110.474C87.9542 110.49 87.9711 110.502 87.9805 110.509L87.9857 110.512C87.986 110.513 87.9864 110.513 87.9867 110.513C87.987 110.513 87.9872 110.513 87.9875 110.514C87.9874 110.514 87.9875 110.514 87.9875 110.514L87.9887 110.515C87.9887 110.515 87.9887 110.515 87.9887 110.515C89.0274 111.256 90.5687 111.135 91.433 110.242C92.2982 109.349 92.1574 108.021 91.1187 107.277L89.5522 108.895C91.1187 107.277 91.1181 107.277 91.1175 107.276L91.1127 107.273L91.1037 107.266L91.0769 107.247C91.0551 107.232 91.0254 107.211 90.988 107.186C90.9133 107.134 90.8079 107.063 90.6732 106.974C90.4039 106.797 90.0171 106.55 89.5248 106.258C88.542 105.674 87.1295 104.901 85.3857 104.128C81.9242 102.595 77.0159 101 71.5 101C65.9841 101 61.0758 102.595 57.6142 104.128C55.8705 104.901 54.458 105.674 53.4752 106.258C52.9829 106.55 52.5961 106.797 52.3268 106.974C52.1921 107.063 52.0867 107.134 52.012 107.186C51.9746 107.211 51.9449 107.232 51.9231 107.247L51.8963 107.266L51.8873 107.273L51.8825 107.276C51.8819 107.277 51.8813 107.277 53.4478 108.895" fill="#EBEBEB"/>
<path d="M54.8869 107.506C54.1199 106.711 52.8537 106.689 52.0589 107.456C51.2641 108.223 51.2417 109.489 52.0087 110.284L54.8869 107.506ZM53.5721 111.903C54.3392 112.698 55.6053 112.721 56.4001 111.954C57.1949 111.187 57.2174 109.921 56.4503 109.126L53.5721 111.903ZM56.4503 109.126L54.8869 107.506L52.0087 110.284L53.5721 111.903L56.4503 109.126ZM51.8813 107.277L54.7549 104.494L52.3557 102.017L49.552 104.025L51.8813 107.277ZM51.567 110.242L54.4405 107.459H54.4405L51.567 110.242ZM55.0112 110.515L52.7061 107.246L52.6965 107.252L52.6869 107.259L55.0112 110.515ZM55.0195 110.509L52.7205 107.235L52.7145 107.24L55.0195 110.509ZM55.0701 110.474L57.3374 113.769L55.0701 110.474ZM55.3023 110.318L53.1029 106.977L53.1029 106.977L55.3023 110.318ZM56.2577 109.722L58.3009 113.161L58.3009 113.161L56.2577 109.722ZM59.8561 107.872L58.2358 104.214L58.2358 104.214L59.8561 107.872ZM83.1439 107.872L84.7642 104.214L83.1439 107.872ZM86.7423 109.722L84.6991 113.161L84.6991 113.161L86.7423 109.722ZM87.6977 110.318L85.4982 113.659L85.4983 113.659L87.6977 110.318ZM87.9299 110.474L90.1972 107.178L90.1972 107.178L87.9299 110.474ZM87.9805 110.509L85.6813 113.782L85.6888 113.787L87.9805 110.509ZM87.9857 110.512L90.3138 107.26L90.2957 107.247L90.2774 107.234L87.9857 110.512ZM87.9867 110.513L90.3184 107.263L90.3148 107.26L87.9867 110.513ZM91.433 110.242L94.3066 113.025L94.3066 113.025L91.433 110.242ZM91.1187 107.277L93.448 104.025L90.6443 102.017L88.2451 104.494L91.1187 107.277ZM91.1175 107.276L88.7918 110.531L88.7928 110.531L91.1175 107.276ZM91.1127 107.273L93.4384 104.018L93.4302 104.012L91.1127 107.273ZM91.1037 107.266L93.4212 104.006L93.41 103.998L91.1037 107.266ZM91.0769 107.247L93.3832 103.979L93.376 103.974L91.0769 107.247ZM90.988 107.186L93.2554 103.89L93.2553 103.89L90.988 107.186ZM90.6732 106.974L92.8726 103.633L92.8726 103.633L90.6732 106.974ZM89.5248 106.258L91.568 102.819L91.568 102.819L89.5248 106.258ZM85.3857 104.128L83.7655 107.786L85.3857 104.128ZM57.6142 104.128L55.994 100.471L57.6142 104.128ZM53.4752 106.258L55.5184 109.697H55.5184L53.4752 106.258ZM52.3268 106.974L54.5263 110.315H54.5263L52.3268 106.974ZM52.012 107.186L54.2792 110.481L54.2793 110.481L52.012 107.186ZM51.9231 107.247L49.6241 103.974L49.617 103.979L51.9231 107.247ZM51.8963 107.266L49.5901 103.998L49.5842 104.002L49.5783 104.006L51.8963 107.266ZM51.8873 107.273L49.5693 104.013L49.563 104.017L51.8873 107.273ZM51.8825 107.276L49.5582 104.021L49.5546 104.023L51.8825 107.276ZM56.3214 106.112L54.7549 104.494L49.0078 110.06L50.5743 111.677L56.3214 106.112ZM49.552 104.025C46.6316 106.117 46.0398 110.284 48.6934 113.025L54.4405 107.459C54.8038 107.835 55.0603 108.442 54.9879 109.125C54.9166 109.797 54.5579 110.28 54.2107 110.529L49.552 104.025ZM48.6934 113.025C50.992 115.398 54.7538 115.613 57.3355 113.77L52.6869 107.259C53.0086 107.029 53.3194 106.986 53.539 107.004C53.7563 107.021 54.1092 107.117 54.4405 107.459L48.6934 113.025ZM57.3163 113.784L57.3246 113.778L52.7145 107.24L52.7061 107.246L57.3163 113.784ZM57.3186 113.782C57.3175 113.783 57.3238 113.778 57.3374 113.769L52.8028 107.178C52.7678 107.202 52.7403 107.222 52.7205 107.235L57.3186 113.782ZM57.3374 113.769C57.3644 113.75 57.4197 113.713 57.5018 113.659L53.1029 106.977C52.9734 107.062 52.8729 107.13 52.8028 107.178L57.3374 113.769ZM57.5018 113.659C57.6663 113.55 57.9367 113.377 58.3009 113.161L54.2145 106.283C53.7363 106.568 53.3617 106.806 53.1029 106.977L57.5018 113.659ZM58.3009 113.161C59.0333 112.726 60.1227 112.128 61.4764 111.529L58.2358 104.214C56.5435 104.964 55.1704 105.715 54.2145 106.283L58.3009 113.161ZM61.4764 111.529C64.2426 110.303 67.7911 109.211 71.5 109.211V101.211C66.3008 101.211 61.6136 102.718 58.2358 104.214L61.4764 111.529ZM71.5 109.211C75.2089 109.211 78.7574 110.303 81.5236 111.529L84.7642 104.214C81.3864 102.718 76.6992 101.211 71.5 101.211V109.211ZM81.5236 111.529C82.8773 112.128 83.9667 112.726 84.6991 113.161L88.7855 106.283C87.8296 105.715 86.4565 104.964 84.7642 104.214L81.5236 111.529ZM84.6991 113.161C85.0633 113.377 85.3336 113.55 85.4982 113.659L89.8971 106.977C89.6383 106.806 89.2637 106.568 88.7855 106.283L84.6991 113.161ZM85.4983 113.659C85.5803 113.713 85.6356 113.75 85.6627 113.769L90.1972 107.178C90.1271 107.13 90.0266 107.062 89.8971 106.977L85.4983 113.659ZM85.6626 113.769C85.6761 113.778 85.6824 113.783 85.6813 113.782L90.2796 107.236C90.2598 107.222 90.2323 107.202 90.1972 107.178L85.6626 113.769ZM85.6888 113.787L85.694 113.791L90.2774 107.234L90.2721 107.23L85.6888 113.787ZM85.6576 113.765C85.6559 113.764 85.6545 113.763 85.6549 113.763C85.655 113.763 85.6554 113.764 85.656 113.764C85.6566 113.764 85.6575 113.765 85.6586 113.766L90.3148 107.26C90.3165 107.262 90.3179 107.263 90.3175 107.262C90.3175 107.262 90.317 107.262 90.3164 107.262C90.3158 107.261 90.3149 107.26 90.3138 107.26L85.6576 113.765ZM85.655 113.763C85.659 113.766 85.6622 113.768 85.6644 113.77C85.6664 113.771 85.6681 113.773 85.6683 113.773C85.6692 113.773 85.6679 113.772 85.667 113.772C85.6657 113.771 85.6633 113.769 85.6602 113.767L90.3147 107.26C90.3115 107.258 90.309 107.256 90.3076 107.255C90.3065 107.254 90.3051 107.254 90.3058 107.254C90.306 107.254 90.3075 107.255 90.3094 107.257C90.3115 107.258 90.3146 107.26 90.3184 107.263L85.655 113.763ZM85.6381 113.751C85.6381 113.751 85.6381 113.751 85.6381 113.751L85.6381 113.751C85.6381 113.751 85.6381 113.751 85.6381 113.751C85.6381 113.751 85.6381 113.751 85.6381 113.751L85.6381 113.751C85.6381 113.751 85.6381 113.751 85.6381 113.751C84.7501 108.164 90.3368 107.276 90.3368 107.276C90.3368 107.276 90.3368 107.276 90.3368 107.276C90.3368 107.276 90.3368 107.276 90.3368 107.276C90.3368 107.276 90.3368 107.276 90.3368 107.276C90.3368 107.276 90.3368 107.276 90.3368 107.276C90.3368 107.276 90.3368 107.276 90.3368 107.276V107.276C90.3368 107.276 90.3368 107.276 90.3368 107.276C90.3368 107.276 90.3368 107.276 90.3368 107.276C90.3368 107.276 90.3368 107.276 90.3368 107.276C90.3368 107.276 90.3368 107.276 90.3368 107.276C90.3368 107.276 90.3368 107.276 90.3368 107.276C90.3368 107.276 90.3368 107.276 90.3368 107.276C90.3368 107.276 90.3368 107.276 90.3368 107.276C90.3368 107.276 90.3368 107.276 90.3368 107.276C90.3368 107.276 90.3368 107.276 90.3368 107.276C90.3368 107.276 90.3368 107.276 90.3368 107.276C90.3368 107.276 90.3368 107.276 90.3368 107.276C90.3368 107.276 90.3368 107.276 90.3368 107.276C90.3368 107.276 90.3368 107.276 90.3368 107.276C90.3368 107.276 90.3368 107.276 90.3368 107.276C90.3368 107.276 90.3368 107.276 90.3368 107.276C90.3368 107.276 90.3368 107.276 90.3368 107.276C90.3368 107.276 90.3368 107.276 90.3368 107.276C90.3368 107.276 90.3368 107.276 90.3368 107.276C90.3368 107.276 90.3368 107.276 90.3368 107.276C90.3368 107.276 90.3368 107.276 90.3368 107.276C90.3368 107.276 90.3368 107.276 90.3368 107.276V107.276C90.3368 107.276 90.3368 107.276 90.3368 107.276C90.3368 107.276 90.3368 107.276 90.3368 107.276C90.3368 107.276 90.3368 107.276 90.3368 107.276C90.3368 107.276 90.3368 107.276 90.3368 107.276C90.3368 107.276 90.3368 107.276 90.3368 107.276C90.3368 107.276 90.3368 107.276 90.3368 107.276C90.3368 107.276 90.3368 107.276 90.3368 107.276C90.3368 107.276 84.7501 108.164 85.6381 113.751C85.6381 113.751 85.6381 113.751 85.6381 113.751C85.6381 113.751 85.6381 113.751 85.6381 113.751C85.6381 113.751 85.6381 113.751 85.6381 113.751C85.6381 113.751 85.6381 113.751 85.6381 113.751C85.6381 113.751 85.6381 113.751 85.6381 113.751C85.6381 113.751 85.6381 113.751 85.6381 113.751L90.3368 107.276C90.3368 107.276 90.3368 107.276 90.3368 107.276C90.3368 107.276 90.3368 107.276 90.3368 107.276C90.3368 107.276 90.3368 107.276 90.3368 107.276C90.3368 107.276 90.3368 107.276 90.3368 107.276C90.3368 107.276 90.3368 107.276 90.3368 107.276C90.3368 107.276 90.3368 107.276 90.3368 107.276C90.3368 107.276 90.3368 107.276 90.3368 107.276C91.2248 112.863 85.6381 113.751 85.6381 113.751C85.6381 113.751 85.6381 113.751 85.6381 113.751C85.6381 113.751 85.6381 113.751 85.6381 113.751C85.6381 113.751 85.6381 113.751 85.6381 113.751C85.6381 113.751 85.6381 113.751 85.6381 113.751C85.6381 113.751 85.6381 113.751 85.6381 113.751C85.6381 113.751 85.6381 113.751 85.6381 113.751V113.751C85.6381 113.751 85.6381 113.751 85.6381 113.751C85.6381 113.751 85.6381 113.751 85.6381 113.751C85.6381 113.751 85.6381 113.751 85.6381 113.751C85.6381 113.751 85.6381 113.751 85.6381 113.751C85.6381 113.751 85.6381 113.751 85.6381 113.751C85.6381 113.751 85.6381 113.751 85.6381 113.751C85.6381 113.751 85.6381 113.751 85.6381 113.751C85.6381 113.751 85.6381 113.751 85.6381 113.751C85.6381 113.751 85.6381 113.751 85.6381 113.751C85.6381 113.751 85.6381 113.751 85.6381 113.751C85.6381 113.751 85.6381 113.751 85.6381 113.751C85.6381 113.751 85.6381 113.751 85.6381 113.751L85.6381 113.751C85.6381 113.751 85.6381 113.751 85.6381 113.751C85.6381 113.751 85.6381 113.751 85.6381 113.751C85.6381 113.751 85.6381 113.751 85.6381 113.751C85.6381 113.751 85.6381 113.751 85.6381 113.751C85.6381 113.751 85.6381 113.751 85.6381 113.751C85.6381 113.751 85.6381 113.751 85.6381 113.751C85.6381 113.751 85.6381 113.751 85.6381 113.751C85.6381 113.751 85.6381 113.751 85.6381 113.751C85.6381 113.751 85.6381 113.751 85.6381 113.751C85.6381 113.751 91.2248 112.863 90.3369 107.276C90.3368 107.276 90.3368 107.276 90.3368 107.276C90.3368 107.276 90.3368 107.276 90.3368 107.276C90.3368 107.276 90.3368 107.276 90.3368 107.276C90.3368 107.276 90.3368 107.276 90.3368 107.276C90.3368 107.276 90.3368 107.276 90.3368 107.276L85.6381 113.751ZM85.6624 113.769L85.6637 113.769L90.3138 107.26L90.3125 107.259L85.6624 113.769ZM85.6585 113.766C85.6585 113.766 85.6585 113.766 85.6585 113.766C85.6585 113.766 85.6585 113.766 85.6585 113.766C85.6585 113.766 85.6585 113.766 85.6585 113.766V113.766C85.6585 113.766 85.6585 113.766 85.6585 113.766C85.6585 113.766 85.6585 113.766 85.6585 113.766C85.6585 113.766 85.6585 113.766 85.6585 113.766C85.6585 113.766 85.6585 113.766 85.6585 113.766C85.6585 113.766 85.6585 113.766 85.6585 113.766C84.7376 108.184 90.3189 107.263 90.3189 107.263C90.3189 107.263 90.3189 107.263 90.3189 107.263C90.3189 107.263 90.3189 107.263 90.3189 107.263C90.3189 107.263 90.3189 107.263 90.3189 107.263C90.3189 107.263 90.3189 107.263 90.3189 107.263V107.263C90.3189 107.263 90.3189 107.263 90.3189 107.263C90.3189 107.263 90.3189 107.263 90.3189 107.263C90.3189 107.263 90.3189 107.263 90.3189 107.263C90.3189 107.263 90.3189 107.263 90.3189 107.263C90.3189 107.263 90.3189 107.263 90.3189 107.263C90.3189 107.263 90.3189 107.263 90.3189 107.263C90.3189 107.263 90.3189 107.263 90.3189 107.263C90.3189 107.263 90.3189 107.263 90.3189 107.263C90.3189 107.263 90.3189 107.263 90.3189 107.263C90.3189 107.263 90.3189 107.263 90.3189 107.263C90.3189 107.263 90.3189 107.263 90.3189 107.263C90.3189 107.263 90.3189 107.263 90.3189 107.263C90.3189 107.263 90.3189 107.263 90.3189 107.263C90.3189 107.263 90.3189 107.263 90.3189 107.263C90.3189 107.263 90.3189 107.263 90.319 107.263C90.3189 107.263 84.7376 108.184 85.6583 113.766C85.6585 113.766 85.6585 113.766 85.6585 113.766C85.6585 113.766 85.6585 113.766 85.6585 113.766C85.6585 113.766 85.6585 113.766 85.6585 113.766C85.6585 113.766 85.6585 113.766 85.6585 113.766C85.6585 113.766 85.6585 113.766 85.6585 113.766C85.6585 113.766 85.6585 113.766 85.6585 113.766C85.6585 113.766 85.6585 113.766 85.6585 113.766C85.6585 113.766 85.6585 113.766 85.6585 113.766L90.3189 107.263C90.3189 107.263 90.3189 107.263 90.3189 107.263H90.3189C90.3189 107.263 90.3189 107.263 90.3189 107.263C90.3189 107.263 90.3189 107.263 90.3189 107.263C90.3189 107.263 90.3189 107.263 90.3189 107.263C90.3189 107.263 90.3189 107.263 90.3189 107.263C90.3189 107.263 90.3189 107.263 90.3189 107.263C90.3189 107.263 90.3189 107.263 90.3189 107.263C90.3189 107.263 90.3189 107.263 90.3189 107.263C90.3189 107.263 90.3189 107.263 90.3189 107.263C90.3189 107.263 90.3189 107.263 90.3189 107.263C91.2398 112.845 85.6585 113.766 85.6585 113.766C85.6585 113.766 85.6585 113.766 85.6585 113.766C85.6585 113.766 85.6585 113.766 85.6585 113.766C85.6585 113.766 85.6585 113.766 85.6585 113.766C85.6585 113.766 85.6585 113.766 85.6585 113.766C85.6585 113.766 85.6585 113.766 85.6585 113.766C85.6585 113.766 85.6585 113.766 85.6585 113.766C85.6585 113.766 85.6585 113.766 85.6585 113.766C85.6585 113.766 85.6585 113.766 85.6585 113.766C85.6585 113.766 85.6585 113.766 85.6585 113.766V113.766C85.6585 113.766 85.6585 113.766 85.6585 113.766C85.6585 113.766 85.6585 113.766 85.6585 113.766C85.6585 113.766 85.6585 113.766 85.6585 113.766C85.6585 113.766 85.6585 113.766 85.6585 113.766C85.6585 113.766 85.6585 113.766 85.6585 113.766C85.6585 113.766 85.6585 113.766 85.6585 113.766C85.6585 113.766 85.6585 113.766 85.6585 113.766C85.6585 113.766 85.6585 113.766 85.6585 113.766C85.6585 113.766 91.2398 112.845 90.3191 107.263C90.3189 107.263 90.3189 107.263 90.3189 107.263C90.3189 107.263 90.3189 107.263 90.3189 107.263C90.3189 107.263 90.3189 107.263 90.3189 107.263C90.3189 107.263 90.3189 107.263 90.3189 107.263C90.3189 107.263 90.3189 107.263 90.3189 107.263C90.3189 107.263 90.3189 107.263 90.3189 107.263C90.3189 107.263 90.3189 107.263 90.3189 107.263C90.3189 107.263 90.3189 107.263 90.3189 107.263C90.3189 107.263 90.3189 107.263 90.3189 107.263C90.3189 107.263 90.3189 107.263 90.3189 107.263C90.3189 107.263 90.3189 107.263 90.3189 107.263C90.3189 107.263 90.3189 107.263 90.3189 107.263L85.6585 113.766ZM85.6643 113.77C88.246 115.613 92.0079 115.398 94.3066 113.025L88.5595 107.459C88.8909 107.117 89.2438 107.021 89.461 107.004C89.6806 106.986 89.9914 107.029 90.3131 107.259L85.6643 113.77ZM94.3066 113.025C96.9602 110.284 96.3684 106.117 93.448 104.025L88.7893 110.529C88.4421 110.28 88.0834 109.797 88.0121 109.125C87.9397 108.442 88.1962 107.835 88.5595 107.459L94.3066 113.025ZM88.2451 104.494L86.6786 106.112L92.4257 111.677L93.9922 110.06L88.2451 104.494ZM92.4257 111.677C93.2088 110.869 93.6016 110.463 93.7987 110.259C93.8958 110.158 93.95 110.102 93.9806 110.07C93.9898 110.061 94.0176 110.032 94.0458 110.001C94.0545 109.992 94.0716 109.973 94.0926 109.95C94.1065 109.935 94.1573 109.878 94.2187 109.803C94.2488 109.766 94.3108 109.688 94.3832 109.586C94.4333 109.515 94.6065 109.27 94.764 108.92C94.8695 108.686 95.3625 107.585 94.966 106.186C94.7512 105.428 94.3536 104.868 93.9907 104.493C93.8248 104.322 93.6761 104.199 93.5857 104.129C93.5502 104.101 93.4964 104.06 93.4783 104.047C93.4603 104.034 93.4422 104.021 93.4422 104.021L88.7928 110.531C88.7928 110.531 88.7746 110.518 88.7566 110.505C88.7385 110.492 88.6847 110.451 88.6492 110.424C88.5588 110.353 88.4101 110.23 88.2442 110.059C87.8813 109.684 87.4837 109.125 87.269 108.367C86.8724 106.967 87.3655 105.866 87.471 105.632C87.6284 105.283 87.8015 105.038 87.8516 104.967C87.9238 104.865 87.9857 104.787 88.0157 104.751C88.0767 104.676 88.127 104.62 88.1401 104.605C88.1603 104.583 88.1762 104.565 88.1835 104.558C88.2057 104.534 88.2214 104.518 88.2062 104.533C88.1882 104.552 88.1448 104.597 88.0462 104.699C87.8522 104.9 87.4621 105.303 86.6786 106.112L92.4257 111.677ZM93.4302 104.012L93.4212 104.006L88.7863 110.527L88.7952 110.533L93.4302 104.012ZM93.41 103.998L93.3832 103.979L88.7707 110.516L88.7975 110.535L93.41 103.998ZM93.376 103.974C93.3437 103.952 93.3035 103.923 93.2554 103.89L88.7207 110.481C88.7473 110.499 88.7665 110.513 88.7779 110.521L93.376 103.974ZM93.2553 103.89C93.159 103.824 93.031 103.737 92.8726 103.633L88.4737 110.315C88.5848 110.388 88.6676 110.445 88.7207 110.481L93.2553 103.89ZM92.8726 103.633C92.5563 103.425 92.1173 103.146 91.568 102.819L87.4816 109.697C87.9169 109.955 88.2516 110.169 88.4738 110.315L92.8726 103.633ZM91.568 102.819C90.4734 102.169 88.9191 101.319 87.0061 100.471L83.7655 107.786C85.34 108.483 86.6106 109.179 87.4816 109.697L91.568 102.819ZM87.0061 100.471C83.2387 98.8022 77.7611 97 71.5 97V105C76.2707 105 80.6096 106.387 83.7655 107.786L87.0061 100.471ZM71.5 97C65.2389 97 59.7613 98.8022 55.994 100.471L59.2345 107.786C62.3904 106.387 66.7293 105 71.5 105V97ZM55.994 100.471C54.0809 101.319 52.5266 102.169 51.432 102.819L55.5184 109.697C56.3894 109.179 57.66 108.483 59.2345 107.786L55.994 100.471ZM51.432 102.819C50.8827 103.146 50.4437 103.425 50.1274 103.633L54.5263 110.315C54.7484 110.169 55.0831 109.955 55.5184 109.697L51.432 102.819ZM50.1274 103.633C49.969 103.737 49.841 103.824 49.7447 103.89L54.2793 110.481C54.3324 110.445 54.4152 110.388 54.5263 110.315L50.1274 103.633ZM49.7447 103.89C49.6965 103.923 49.6563 103.952 49.6241 103.974L54.2221 110.521C54.2336 110.513 54.2527 110.499 54.2792 110.481L49.7447 103.89ZM49.617 103.979L49.5901 103.998L54.2024 110.535L54.2292 110.516L49.617 103.979ZM49.5783 104.006L49.5693 104.013L54.2053 110.533L54.2142 110.526L49.5783 104.006ZM49.5546 104.023C49.5546 104.023 49.5364 104.036 49.5184 104.05C49.5003 104.063 49.4465 104.104 49.4109 104.131C49.3205 104.202 49.1717 104.325 49.0059 104.497C48.6429 104.872 48.2462 105.433 48.0325 106.191C47.6383 107.59 48.1316 108.689 48.2368 108.922C48.3942 109.271 48.5672 109.516 48.6172 109.587C48.6895 109.689 48.7514 109.766 48.7816 109.803C48.8428 109.878 48.8936 109.935 48.9075 109.95C48.9285 109.974 48.9456 109.992 48.9543 110.001C48.9824 110.032 49.0102 110.061 49.0194 110.07C49.05 110.102 49.1042 110.158 49.2013 110.259C49.3984 110.463 49.7912 110.869 50.5743 111.677L56.3214 106.112C55.5379 105.303 55.1478 104.9 54.9538 104.699C54.8552 104.597 54.8118 104.552 54.7938 104.533C54.7786 104.518 54.7943 104.534 54.8165 104.558C54.8237 104.565 54.8396 104.583 54.8598 104.605C54.8729 104.62 54.9231 104.676 54.984 104.75C55.014 104.787 55.0758 104.864 55.148 104.966C55.198 105.037 55.3709 105.282 55.5282 105.63C55.6335 105.863 56.1267 106.963 55.7325 108.361C55.5189 109.119 55.1222 109.68 54.7592 110.056C54.5933 110.227 54.4446 110.35 54.3541 110.421C54.3186 110.449 54.2647 110.489 54.2467 110.503C54.2286 110.516 54.2105 110.529 54.2105 110.529L49.5546 104.023ZM93.4431 104.022L93.4384 104.018L88.787 110.527L88.7918 110.531L93.4431 104.022ZM49.563 104.017L49.5582 104.021L54.2069 110.532L54.2116 110.528L49.563 104.017Z" fill="white" mask="url(#path-5-outside-1_1471_10867)"/>
</svg>
