<svg width="99" height="116" viewBox="0 0 99 116" fill="none" xmlns="http://www.w3.org/2000/svg">
<path fill-rule="evenodd" clip-rule="evenodd" d="M36.8442 0.44089C36.0342 0.702311 34.814 1.23656 34.1328 1.62792C32.4397 2.60046 3.37103 31.6814 1.99778 33.7764C1.44078 34.6266 0.754414 36.0854 0.472946 37.0183C-0.0282723 38.6783 -0.0378256 39.4489 0.0298299 72.8189L0.0990342 106.923L1.0617 108.948C2.35826 111.675 4.40549 113.731 7.12075 115.033L9.13698 116H49.5495H89.9621L91.9783 115.033C94.6936 113.731 96.7408 111.675 98.0373 108.948L99 106.923V58.0362V9.14947L98.0373 7.12449C96.7408 4.39747 94.6936 2.34138 91.9783 1.0392L89.9621 0.072359L64.1394 0.0189334C39.7253 -0.0316391 38.2363 -0.00855659 36.8442 0.44089ZM41.2315 20.2365L41.1571 32.2313L40.1945 34.2562C38.8979 36.9833 36.8507 39.0393 34.1354 40.3415L32.1192 41.3084L20.1762 41.3831L8.23319 41.4577V72.4545C8.23319 94.4559 8.31711 103.786 8.52214 104.604C8.863 105.963 10.0689 107.151 11.5186 107.556C12.9076 107.943 86.2154 107.934 87.638 107.546C89.1706 107.129 90.2753 105.938 90.6022 104.353C90.7884 103.449 90.8527 88.5918 90.8054 57.2581C90.7424 15.2306 90.7019 11.4198 90.3094 10.7055C89.6811 9.56183 88.8039 8.84655 87.638 8.5273C86.9292 8.33331 79.4974 8.24409 63.9555 8.24331L41.3059 8.24176L41.2315 20.2365ZM23.599 23.801L14.3041 33.139L21.5332 33.1374C25.921 33.1366 29.1682 33.0254 29.7951 32.8545C31.3275 32.4369 32.4322 31.2468 32.7596 29.6611C32.9228 28.8712 33.0044 25.5554 32.9631 21.402L32.8939 14.4629L23.599 23.801ZM68.271 48.0667C67.8449 48.2871 66.7123 49.2459 65.7538 50.1972L64.0115 51.9265L62.526 50.4703C60.7504 48.7293 59.7459 48.181 58.3318 48.181C55.9391 48.181 54.1976 49.9863 54.1976 52.467C54.1976 54.0049 54.4429 54.4559 56.343 56.4083L57.9135 58.0224L56.0765 59.925C54.1093 61.9624 53.7287 62.8554 54.0303 64.7226C54.4316 67.2064 57.0363 68.7033 59.5256 67.8812C60.118 67.6854 61.2312 66.8667 62.2623 65.8682L64.0002 64.185L65.9276 66.0238C67.3192 67.3514 68.1142 67.9113 68.7874 68.0381C70.908 68.4378 72.7631 67.5391 73.5892 65.7126C74.5384 63.6132 74.0953 62.188 71.7217 59.7051L70.1232 58.0333L71.9461 56.1453C74.4948 53.5051 74.9185 51.7668 73.5584 49.5276C72.5991 47.9476 69.9267 47.2093 68.271 48.0667ZM39.2204 48.3182C38.7234 48.541 37.5964 49.4381 36.7162 50.3116L35.1154 51.9001L33.3039 50.1837C31.3711 48.3525 30.4751 47.9813 28.6894 48.2723C26.2159 48.6753 24.7251 51.2927 25.5455 53.7915C25.7338 54.3651 26.5376 55.4881 27.4238 56.4153L28.9732 58.0362L27.3761 59.7066C25.0037 62.188 24.5609 63.6134 25.5099 65.7126C26.3359 67.5391 28.191 68.4378 30.3116 68.0381C30.9848 67.9113 31.7799 67.3514 33.1715 66.0238L35.0989 64.185L36.8367 65.8682C37.8678 66.8667 38.9811 67.6854 39.5734 67.8812C42.0627 68.7033 44.6675 67.2064 45.0688 64.7226C45.3701 62.8569 44.9892 61.9622 43.0293 59.932L41.199 58.0362L43.0293 56.1404C44.9892 54.1102 45.3701 53.2155 45.0688 51.3497C44.6502 48.7591 41.6762 47.2178 39.2204 48.3182ZM42.6388 75.0402C37.8963 75.7345 30.4126 78.1046 28.3852 79.5544C26.769 80.7105 26.3019 83.5952 27.4554 85.2999C28.8895 87.4198 30.8177 87.5746 34.9762 85.9037C44.2721 82.1683 54.8269 82.1683 64.1228 85.9037C67.6244 87.3106 69.0575 87.4336 70.4982 86.4504C71.0079 86.1026 71.629 85.3863 71.8782 84.8585C72.4772 83.5911 72.3179 81.495 71.5391 80.3967C70.2583 78.5901 62.7532 75.9572 56.2299 75.0262C52.9251 74.5542 45.9083 74.5617 42.6388 75.0402Z" fill="#DADADA"/>
</svg>
