<svg width="400" height="400" viewBox="0 0 400 400" fill="none" xmlns="http://www.w3.org/2000/svg">
<rect width="400" height="400" fill="#F6F6F6"/>
<rect x="224.227" y="227.516" width="85.2947" height="83.4095" rx="16.4013" transform="rotate(154 224.227 227.516)" fill="#E6E6E6"/>
<rect x="176.004" y="130" width="115.372" height="121.149" rx="16.4013" transform="rotate(11 176.004 130)" fill="white"/>
<rect x="179.487" y="135.76" width="106.09" height="111.403" rx="15.0818" transform="rotate(11 179.487 135.76)" fill="#E9E9E9"/>
<rect x="191.127" y="153.039" width="77.9432" height="81.8464" rx="11.0804" transform="rotate(11 191.127 153.039)" fill="white"/>
<path d="M246.03 238.92L253.329 207.117C253.541 206.193 252.608 205.422 251.741 205.805L210.379 224.069C209.867 224.295 209.266 224.12 208.955 223.654L202.045 213.289C201.701 212.773 201.011 212.622 200.483 212.947L186.891 221.311C186.612 221.482 186.42 221.764 186.361 222.086L185.504 226.802C185.391 227.421 185.795 228.015 186.411 228.138L244.681 239.792C245.293 239.914 245.89 239.528 246.03 238.92Z" fill="#E9E9E9"/>
</svg>
