<svg
   xmlns="http://www.w3.org/2000/svg"
   height="512"
   width="512"
   viewBox="0 0 1024 1024"
   role="img"
   focusable="false"
   aria-hidden="true">
  <path
     style="fill:#E3E3E3"
     id="path2"
     d="m 408.4591,376 c -26.51,0 -48,21.49 -48,48 0,26.51 21.49,48 48,48 26.51,0 48,-21.49 48,-48 0,-26.51 -21.5,-48 -48,-48 z m 295.1,-88 h -384 c -34.45,0 -63.1091,28.65 -63.1091,64 v 320 c 0,35.35 28.65,64 63.1,64 h 384 c 35.35,0 64,-28.65 64,-64 V 352 c 0.009,-35.35 -27.7909,-64 -63.9909,-64 z m 16,377.3 -136.8,-185.9 c -2.5,-4.6 -8.2,-7.4 -14.3,-7.4 -6.113,0 -11.82,2.768 -15.21,7.379 l -106.6,144.1 -37.09,-46.1 c -3.441,-4.279 -8.934,-6.809 -14.77,-6.809 -5.842,0 -11.33,2.529 -14.78,6.809 l -75.52,93.81 c 0,-0.0293 0,0.0293 0,0 L 304.4491,352 c 0,-8.822 7.178,-16 16,-16 h 384 c 8.822,0 16,7.178 16,16 v 313.3 z" />
</svg>
