<svg width="41" height="40" viewBox="0 0 41 40" fill="none" xmlns="http://www.w3.org/2000/svg">
<rect x="4.5" y="4" width="32" height="32" rx="16" fill="#8CA350"/>
<path d="M20.5 13.4458C22.6205 13.4458 22.9096 13.4458 23.7771 13.4458C24.5482 13.4458 24.9337 13.6386 25.2229 13.7349C25.6084 13.9277 25.8976 14.0241 26.1867 14.3133C26.4759 14.6024 26.6687 14.8916 26.7651 15.2771C26.8614 15.5663 26.9578 15.9518 27.0542 16.7229C27.0542 17.5904 27.0542 17.7831 27.0542 20C27.0542 22.2169 27.0542 22.4096 27.0542 23.2771C27.0542 24.0482 26.8614 24.4337 26.7651 24.7229C26.5723 25.1084 26.4759 25.3976 26.1867 25.6867C25.8976 25.9759 25.6084 26.1687 25.2229 26.2651C24.9337 26.3614 24.5482 26.4578 23.7771 26.5542C22.9096 26.5542 22.7169 26.5542 20.5 26.5542C18.2831 26.5542 18.0904 26.5542 17.2229 26.5542C16.4518 26.5542 16.0663 26.3614 15.7771 26.2651C15.3916 26.0723 15.1024 25.9759 14.8133 25.6867C14.5241 25.3976 14.3313 25.1084 14.2349 24.7229C14.1386 24.4337 14.0422 24.0482 13.9458 23.2771C13.9458 22.4096 13.9458 22.2169 13.9458 20C13.9458 17.7831 13.9458 17.5904 13.9458 16.7229C13.9458 15.9518 14.1386 15.5663 14.2349 15.2771C14.4277 14.8916 14.5241 14.6024 14.8133 14.3133C15.1024 14.0241 15.3916 13.8313 15.7771 13.7349C16.0663 13.6386 16.4518 13.5422 17.2229 13.4458C18.0904 13.4458 18.3795 13.4458 20.5 13.4458ZM20.5 12C18.2831 12 18.0904 12 17.2229 12C16.3554 12 15.7771 12.1928 15.2952 12.3855C14.8133 12.5783 14.3313 12.8675 13.8494 13.3494C13.3675 13.8313 13.1747 14.2169 12.8855 14.7952C12.6928 15.2771 12.5964 15.8554 12.5 16.7229C12.5 17.5904 12.5 17.8795 12.5 20C12.5 22.2169 12.5 22.4096 12.5 23.2771C12.5 24.1446 12.6928 24.7229 12.8855 25.2048C13.0783 25.6867 13.3675 26.1687 13.8494 26.6506C14.3313 27.1325 14.7169 27.3253 15.2952 27.6145C15.7771 27.8072 16.3554 27.9036 17.2229 28C18.0904 28 18.3795 28 20.5 28C22.6205 28 22.9096 28 23.7771 28C24.6446 28 25.2229 27.8072 25.7048 27.6145C26.1867 27.4217 26.6687 27.1325 27.1506 26.6506C27.6325 26.1687 27.8253 25.7831 28.1145 25.2048C28.3072 24.7229 28.4036 24.1446 28.5 23.2771C28.5 22.4096 28.5 22.1205 28.5 20C28.5 17.8795 28.5 17.5904 28.5 16.7229C28.5 15.8554 28.3072 15.2771 28.1145 14.7952C27.9217 14.3133 27.6325 13.8313 27.1506 13.3494C26.6687 12.8675 26.2831 12.6747 25.7048 12.3855C25.2229 12.1928 24.6446 12.0964 23.7771 12C22.9096 12 22.7169 12 20.5 12Z" fill="white"/>
<path d="M20.5 15.8554C18.1867 15.8554 16.3554 17.6867 16.3554 20C16.3554 22.3133 18.1867 24.1446 20.5 24.1446C22.8133 24.1446 24.6446 22.3133 24.6446 20C24.6446 17.6867 22.8133 15.8554 20.5 15.8554ZM20.5 22.6988C19.0542 22.6988 17.8012 21.5422 17.8012 20C17.8012 18.5542 18.9578 17.3012 20.5 17.3012C21.9458 17.3012 23.1988 18.4578 23.1988 20C23.1988 21.4458 21.9458 22.6988 20.5 22.6988Z" fill="white"/>
<path d="M24.741 16.7229C25.2733 16.7229 25.7048 16.2914 25.7048 15.759C25.7048 15.2267 25.2733 14.7952 24.741 14.7952C24.2086 14.7952 23.7771 15.2267 23.7771 15.759C23.7771 16.2914 24.2086 16.7229 24.741 16.7229Z" fill="white"/>
</svg>
