<svg width="21" height="20" viewBox="0 0 21 20" fill="none" xmlns="http://www.w3.org/2000/svg">
<path fillRule="evenodd" clipRule="evenodd" d="M8.74547 9.35866C8.38089 9.35866 8.09261 9.64199 8.09261 10.0003C8.09261 10.3503 8.38089 10.642 8.74547 10.642H13.8327V14.6253C13.8327 16.667 12.1454 18.3337 10.0597 18.3337H5.93055C3.85327 18.3337 2.16602 16.6753 2.16602 14.6337V5.37533C2.16602 3.32533 3.86175 1.66699 5.93903 1.66699H10.0766C12.1454 1.66699 13.8327 3.32533 13.8327 5.36699V9.35866H8.74547ZM16.8578 7.11716L19.2912 9.54216C19.4162 9.66716 19.4828 9.82549 19.4828 10.0005C19.4828 10.1672 19.4162 10.3338 19.2912 10.4505L16.8578 12.8755C16.7328 13.0005 16.5662 13.0672 16.4078 13.0672C16.2412 13.0672 16.0745 13.0005 15.9495 12.8755C15.6995 12.6255 15.6995 12.2172 15.9495 11.9672L17.2828 10.6422H13.8328V9.35883H17.2828L15.9495 8.03383C15.6995 7.78383 15.6995 7.37549 15.9495 7.12549C16.1995 6.86716 16.6078 6.86716 16.8578 7.11716Z" fill="#93A27C"/>
</svg>
