<svg width="105" height="44" viewBox="0 0 105 44" fill="none" xmlns="http://www.w3.org/2000/svg">
<rect width="105" height="44" rx="10" fill="white"/>
<path d="M75.9911 29.0789C75.9911 27.3278 76.0359 25.936 75.9733 24.5533C75.942 23.9211 75.705 23.2889 76.6662 23.2889C77.4844 23.2889 78.4188 23.1934 78.5082 24.3896C78.5797 25.3311 78.535 26.2817 78.535 27.2232C78.535 28.9242 78.5887 30.6299 78.4993 32.3264C78.4724 32.7994 78.1058 33.5271 77.7482 33.6363C77.3056 33.7727 76.5366 33.5544 76.2013 33.1996C74.8287 31.7624 73.5724 30.216 72.267 28.7105C72.1552 28.5831 72.0166 28.4785 71.6589 28.151C71.6589 29.652 71.6545 30.8846 71.6589 32.1126C71.6634 32.9859 71.489 33.7272 70.4384 33.7864C69.5666 33.8364 69.1285 33.2679 69.115 32.1035C69.0927 29.42 69.0524 26.732 69.0837 24.0485C69.0837 23.7892 69.5889 23.2753 69.7499 23.3208C70.4295 23.4981 71.2253 23.6801 71.6858 24.1531C73.1119 25.6313 74.4085 27.2414 75.9867 29.0698L75.9911 29.0789Z" fill="black"/>
<path d="M82.5025 23.2794C83.9465 23.1611 85.5247 23.3385 86.8213 24.4938C88.4844 25.972 89.1014 27.8231 88.5202 30.0154C87.9837 32.0303 86.2535 33.5312 84.188 33.7495C83.2267 33.8496 82.2566 33.8269 81.2864 33.8223C80.3431 33.8223 79.8513 33.3311 79.8468 32.3396C79.8379 29.5742 79.7931 26.8089 79.8244 24.0435C79.8244 23.7842 80.2402 23.3703 80.5219 23.3158C81.0942 23.2021 81.7067 23.2794 82.5025 23.2794ZM82.337 31.1979C84.0091 31.5345 85.1671 31.1297 85.8511 30.0199C86.4681 29.0148 86.3921 27.6867 85.6633 26.727C84.9122 25.7446 83.7319 25.4216 82.3415 25.8355V31.1979H82.337Z" fill="black"/>
<path d="M79.8129 16.1596C79.8129 14.7951 79.8531 13.4306 79.795 12.0707C79.7682 11.4021 80.0051 11.1747 80.6132 11.1838C81.8024 11.202 83.0006 11.1337 84.1853 11.2338C86.689 11.4385 88.7366 13.8172 88.7456 16.4279C88.7545 19.0887 86.6622 21.472 84.1049 21.6585C83.1392 21.7312 82.169 21.6949 81.2033 21.6903C80.2779 21.6858 79.8576 21.1627 79.8576 20.253C79.8576 18.8886 79.8576 17.5241 79.8576 16.1596C79.8442 16.1596 79.8308 16.1596 79.8129 16.1596ZM82.3076 13.5898C82.3076 15.2727 82.3076 16.8555 82.3076 18.4383C82.3076 18.6566 82.3434 18.8749 82.3702 19.1296C83.7427 19.3707 84.932 19.2115 85.7859 18.0107C86.4386 17.092 86.4476 15.7866 85.7993 14.8087C84.9856 13.5853 83.8009 13.3715 82.3121 13.5898H82.3076Z" fill="black"/>
<path d="M67.9865 16.4235C67.9687 19.2752 65.6483 21.6176 62.854 21.604C60.0687 21.5903 57.7394 19.2207 57.7305 16.3916C57.7216 13.4898 60.0598 11.1565 62.939 11.1838C65.769 11.2157 68.0044 13.5307 67.9865 16.4189V16.4235ZM65.7958 16.3734C65.7958 14.7224 64.5351 13.4261 62.9166 13.4034C61.258 13.3852 59.9212 14.7133 59.9257 16.3871C59.9301 18.0381 61.3161 19.4162 62.9301 19.3844C64.5172 19.3526 65.7958 18.0063 65.7914 16.3734H65.7958Z" fill="black"/>
<path d="M73.9024 11.1895C76.728 11.2258 78.9589 13.5591 78.9366 16.4473C78.9097 19.2899 76.5715 21.6323 73.7772 21.6096C70.9472 21.5868 68.6134 19.1399 68.676 16.2653C68.7431 13.409 71.0635 11.1531 73.9024 11.194V11.1895ZM73.7817 13.409C72.1677 13.4272 70.8846 14.728 70.8757 16.3563C70.8667 18.021 72.2124 19.3991 73.8398 19.3855C75.4627 19.3764 76.7772 17.9755 76.7369 16.2972C76.7012 14.6552 75.4046 13.3908 73.7817 13.409Z" fill="black"/>
<path d="M68.4013 32.758C68.0928 33.0628 67.7754 33.6449 67.4043 33.6813C66.908 33.7314 66.3224 33.4357 65.8753 33.1355C65.5176 32.8945 65.3432 32.1576 65.0214 32.1122C64.0735 31.9803 63.0944 32.0348 62.1332 32.1258C61.9231 32.144 61.7129 32.6034 61.5744 32.8899C61.1899 33.7041 60.5818 34.0497 59.7637 33.6995C58.874 33.322 58.9008 32.5852 59.2227 31.7983C60.2912 29.1831 61.3508 26.5633 62.4238 23.9525C62.7457 23.1657 63.8366 23.0019 64.4759 23.6751C64.7486 23.9662 64.9409 24.3528 65.1018 24.7303C66.0809 27.0181 67.0422 29.3104 67.9989 31.6028C68.1286 31.912 68.2225 32.2395 68.4013 32.758ZM64.8246 30.0518C64.4446 29.0966 64.1048 28.237 63.6488 27.0909C63.1928 28.278 62.8709 29.1239 62.5177 30.0518H64.8291H64.8246Z" fill="black"/>
<path d="M52.6295 13.5237V15.5022C53.4656 15.5022 54.2658 15.5113 55.0661 15.5022C55.8664 15.4885 56.5281 15.7296 56.537 16.6529C56.5504 17.6035 55.8932 17.9355 55.0438 17.9446C54.2748 17.9537 53.5013 17.9446 52.5848 17.9446C52.5848 18.8224 52.5848 19.5684 52.5848 20.3143C52.5803 21.1057 52.2495 21.6515 51.4224 21.6742C50.5372 21.697 50.1572 21.1239 50.1437 20.2961C50.108 17.4989 50.0812 14.6971 50.1124 11.8999C50.1124 11.6589 50.5774 11.2268 50.8367 11.2223C52.7323 11.1631 54.628 11.1859 56.5236 11.1995C57.2121 11.2041 57.6726 11.5543 57.6771 12.2956C57.6815 13.0598 57.2747 13.5055 56.5102 13.5191C55.2539 13.5419 53.9976 13.5237 52.6206 13.5237H52.6295Z" fill="black"/>
<path d="M52.588 31.2145C54.0946 31.2145 55.4627 31.2282 56.8263 31.2145C57.7249 31.2054 58.409 31.4647 58.3956 32.5153C58.3777 33.5114 57.7071 33.7297 56.8621 33.7206C55.1498 33.7024 53.4374 33.7297 51.7251 33.7115C50.6164 33.6979 50.1514 33.2476 50.138 32.1378C50.1022 29.4134 50.0799 26.6844 50.1201 23.96C50.1201 23.7008 50.6163 23.2505 50.907 23.2277C51.658 23.1686 52.4896 23.2778 52.5567 24.3057C52.6282 25.3973 52.588 26.5025 52.588 27.5986C52.588 28.7312 52.588 29.8682 52.588 31.2191V31.2145Z" fill="black"/>
<path d="M37.8484 7.5308C39.7083 7.5308 41.5726 7.50806 43.4324 7.53535C45.3102 7.56264 46.799 8.73609 46.8079 10.6054C46.8303 14.6489 47.027 18.756 46.41 22.7175C45.2208 30.3768 38.0943 36.2714 30.4581 36.4124C26.9575 36.4761 23.4568 36.4443 19.9562 36.4215C18.0293 36.4124 16.5226 35.1935 16.5137 33.2786C16.4913 29.3125 16.3035 25.2828 16.8937 21.3894C18.0561 13.671 25.0261 7.7946 32.707 7.54444C34.4193 7.48986 36.1316 7.53535 37.8439 7.53535C37.8439 7.53535 37.8439 7.52625 37.8439 7.5217L37.8484 7.5308ZM24.0962 34.6113C26.2153 34.6113 28.3434 34.725 30.4537 34.5886C36.0601 34.2247 40.3118 31.5503 43.1687 26.6018C45.4711 22.6084 45.0911 18.2238 45.0017 13.8802C45.0017 13.8529 44.8989 13.8256 44.8407 13.7938C41.4116 24.3231 34.4327 31.1591 24.0917 34.6113H24.0962ZM39.2612 9.35466C37.2761 9.35466 35.2866 9.29553 33.3016 9.36376C27.4761 9.56388 23.1081 12.2747 20.1619 17.3778C17.8549 21.3667 18.2484 25.7512 18.3467 30.0948C18.3467 30.1221 18.454 30.1449 18.4987 30.1631C21.9278 19.6383 28.8934 12.7977 39.2612 9.35466ZM20.2602 31.2365C27.4046 24.4368 34.3433 17.8281 41.4027 11.1103C32.1481 12.4248 22.4688 21.1984 20.2602 31.2365ZM43.0167 12.7886C35.9125 19.5519 29.0364 26.1015 21.9815 32.8193C31.4775 31.4593 41.045 22.3264 43.0167 12.7886Z" fill="black"/>
</svg>
