<svg width="159" height="65" viewBox="0 0 159 65" fill="none" xmlns="http://www.w3.org/2000/svg">
<path d="M130.668 48.2559C130.668 44.358 130.765 41.2598 130.629 38.182C130.56 36.7746 130.044 35.3673 132.138 35.3673C133.92 35.3673 135.955 35.1547 136.15 37.8175C136.306 39.9133 136.208 42.0293 136.208 44.1251C136.208 47.9117 136.325 51.7084 136.13 55.4849C136.072 56.5379 135.274 58.1578 134.495 58.4008C133.53 58.7045 131.856 58.2186 131.125 57.4288C128.136 54.2295 125.399 50.7871 122.556 47.4358C122.313 47.1524 122.011 46.9195 121.232 46.1905C121.232 49.5316 121.222 52.2754 121.232 55.0091C121.241 56.953 120.862 58.6033 118.573 58.7349C116.674 58.8463 115.72 57.5807 115.691 54.9888C115.642 49.0153 115.554 43.0316 115.623 37.0581C115.623 36.481 116.723 35.3369 117.074 35.4382C118.554 35.833 120.287 36.238 121.29 37.291C124.396 40.5815 127.22 44.1656 130.658 48.2357L130.668 48.2559Z" fill="black"/>
<path d="M144.849 35.3549C147.994 35.0917 151.432 35.4865 154.256 38.0582C157.878 41.3487 159.222 45.4694 157.956 50.3495C156.788 54.8347 153.019 58.1758 148.52 58.6618C146.427 58.8845 144.313 58.8339 142.2 58.8238C140.146 58.8238 139.075 57.7303 139.065 55.5231C139.045 49.3674 138.948 43.2116 139.016 37.0558C139.016 36.4787 139.922 35.5574 140.535 35.4359C141.782 35.1828 143.116 35.3549 144.849 35.3549ZM144.489 52.9818C148.131 53.7311 150.653 52.83 152.143 50.3596C153.486 48.122 153.321 45.1657 151.734 43.0294C150.098 40.8424 147.527 40.1236 144.498 41.0449V52.9818H144.489Z" fill="black"/>
<path d="M138.987 19.4999C138.987 16.4625 139.074 13.4251 138.948 10.3979C138.889 8.90956 139.405 8.40333 140.73 8.42358C143.32 8.46408 145.93 8.31221 148.51 8.53495C153.963 8.99056 158.423 14.2857 158.443 20.0973C158.462 26.0202 153.905 31.3255 148.335 31.7406C146.232 31.9026 144.119 31.8216 142.015 31.8114C139.999 31.8013 139.084 30.637 139.084 28.6121C139.084 25.5747 139.084 22.5373 139.084 19.4999C139.055 19.4999 139.026 19.4999 138.987 19.4999ZM144.42 13.7795C144.42 17.5256 144.42 21.049 144.42 24.5723C144.42 25.0583 144.498 25.5443 144.557 26.1113C147.546 26.6479 150.137 26.2935 151.996 23.6206C153.418 21.5754 153.438 18.6697 152.026 16.4929C150.253 13.7694 147.673 13.2935 144.43 13.7795H144.42Z" fill="black"/>
<path d="M113.233 20.0879C113.194 26.436 108.14 31.6502 102.054 31.6198C95.9875 31.5895 90.9141 26.3145 90.8946 20.017C90.8751 13.5575 95.968 8.36361 102.239 8.42436C108.403 8.49523 113.272 13.6487 113.233 20.0778V20.0879ZM108.462 19.9765C108.462 16.3013 105.716 13.4158 102.19 13.3652C98.5777 13.3247 95.6661 16.2811 95.6758 20.0069C95.6856 23.6821 98.7043 26.7499 102.22 26.679C105.677 26.6082 108.462 23.6113 108.452 19.9765H108.462Z" fill="black"/>
<path d="M126.113 8.43359C132.267 8.51459 137.126 13.7085 137.078 20.1376C137.019 26.4655 131.926 31.6797 125.84 31.6291C119.676 31.5785 114.593 26.1314 114.729 19.7327C114.875 13.3744 119.929 8.3526 126.113 8.44372V8.43359ZM125.85 13.3744C122.334 13.4149 119.54 16.3105 119.52 19.9352C119.501 23.6408 122.432 26.7085 125.976 26.6781C129.511 26.6579 132.374 23.5395 132.287 19.8035C132.209 16.1485 129.385 13.3339 125.85 13.3744Z" fill="black"/>
<path d="M114.13 56.4435C113.458 57.1219 112.767 58.4178 111.958 58.4988C110.877 58.6102 109.602 57.9521 108.628 57.2839C107.849 56.7473 107.469 55.1071 106.768 55.0058C104.704 54.7122 102.571 54.8337 100.477 55.0362C100.02 55.0767 99.5621 56.0993 99.2603 56.7371C98.4228 58.5495 97.0985 59.3189 95.3165 58.5393C93.3786 57.699 93.4371 56.0588 94.1382 54.3072C96.4655 48.4856 98.7734 42.6538 101.11 36.8423C101.812 35.0907 104.188 34.7262 105.58 36.2247C106.174 36.8727 106.593 37.7332 106.943 38.5736C109.076 43.6663 111.17 48.7691 113.253 53.8719C113.536 54.5604 113.74 55.2893 114.13 56.4435ZM106.34 50.4194C105.512 48.2932 104.772 46.3797 103.779 43.8283C102.785 46.4708 102.084 48.354 101.315 50.4194H106.349H106.34Z" fill="black"/>
<path d="M79.7761 13.6271V18.0313C81.5971 18.0313 83.3402 18.0515 85.0832 18.0313C86.8263 18.0009 88.2675 18.5375 88.287 20.5928C88.3162 22.7089 86.8847 23.448 85.0346 23.4682C83.3597 23.4885 81.675 23.4682 79.6788 23.4682C79.6788 25.4223 79.6788 27.0827 79.6788 28.7431C79.669 30.5048 78.9484 31.7198 77.1469 31.7704C75.2189 31.821 74.3911 30.5453 74.3619 28.7026C74.284 22.476 74.2256 16.2392 74.2938 10.0126C74.2938 9.47599 75.3065 8.51415 75.8713 8.50403C80.0001 8.37241 84.1289 8.42303 88.2578 8.4534C89.7574 8.46353 90.7604 9.24312 90.7701 10.8934C90.7799 12.5944 89.8937 13.5866 88.2285 13.617C85.4922 13.6676 82.7559 13.6271 79.7567 13.6271H79.7761Z" fill="black"/>
<path d="M79.6857 53.0126C82.9673 53.0126 85.9471 53.043 88.9171 53.0126C90.8744 52.9924 92.3643 53.5695 92.3351 55.9082C92.2961 58.1255 90.8354 58.6115 88.995 58.5913C85.2654 58.5508 81.5359 58.6115 77.8063 58.571C75.3913 58.5406 74.3786 57.5383 74.3494 55.0679C74.2715 49.0033 74.2228 42.9285 74.3104 36.8639C74.3104 36.2868 75.3913 35.2844 76.0243 35.2338C77.6602 35.1022 79.4714 35.3452 79.6175 37.6333C79.7733 40.0632 79.6857 42.5235 79.6857 44.9635C79.6857 47.4846 79.6857 50.0157 79.6857 53.0227V53.0126Z" fill="black"/>
<path d="M47.5785 0.283332C51.6294 0.283332 55.6901 0.232709 59.741 0.293457C63.8309 0.354204 67.0736 2.96635 67.0931 7.12757C67.1418 16.1283 67.5702 25.2709 66.2264 34.0894C63.6362 51.1393 48.1141 64.2608 31.4819 64.5746C23.8572 64.7164 16.2325 64.6455 8.60785 64.5949C4.41086 64.5746 1.12922 61.8612 1.10974 57.5988C1.06105 48.7701 0.652067 39.7997 1.93746 31.133C4.46928 13.9516 19.6505 0.870558 36.3801 0.313704C40.1096 0.192209 43.8392 0.293457 47.5688 0.293457C47.5688 0.293457 47.5688 0.273207 47.5688 0.263082L47.5785 0.283332ZM17.6251 60.5653C22.2408 60.5653 26.876 60.8184 31.4722 60.5146C43.6834 59.7047 52.9441 53.7514 59.1665 42.7358C64.1815 33.8464 63.3538 24.0863 63.159 14.4173C63.159 14.3565 62.935 14.2958 62.8084 14.2249C55.3396 37.6634 40.1388 52.8807 17.6153 60.5653H17.6251ZM50.6557 4.3433C46.3321 4.3433 41.9988 4.21168 37.6752 4.36355C24.9868 4.80903 15.473 10.8433 9.05579 22.2031C4.03108 31.0824 4.88801 40.8425 5.10224 50.5115C5.10224 50.5723 5.33595 50.6229 5.43333 50.6634C12.9022 27.235 28.0737 12.0076 50.6557 4.3433ZM9.27002 53.0528C24.831 37.9165 39.9441 23.2055 55.3201 8.2514C35.1628 11.1774 14.0805 30.7078 9.27002 53.0528ZM58.8354 11.9874C43.3621 27.0427 28.3853 41.6221 13.0191 56.5762C33.7022 53.5489 54.541 33.2187 58.8354 11.9874Z" fill="black"/>
</svg>
