<svg width="105" height="44" viewBox="0 0 105 44" fill="none" xmlns="http://www.w3.org/2000/svg">
<rect x="0.5" y="0.5" width="104" height="43" rx="13.5" fill="white"/>
<rect x="0.5" y="0.5" width="104" height="43" rx="13.5" stroke="#ECECEC"/>
<path d="M75.9911 29.0769C75.9911 27.3258 76.0359 25.9341 75.9733 24.5514C75.942 23.9192 75.705 23.287 76.6662 23.287C77.4844 23.287 78.4188 23.1915 78.5082 24.3877C78.5797 25.3291 78.535 26.2797 78.535 27.2212C78.535 28.9223 78.5887 30.6279 78.4993 32.3244C78.4724 32.7974 78.1058 33.5252 77.7482 33.6343C77.3056 33.7708 76.5366 33.5524 76.2013 33.1977C74.8287 31.7604 73.5724 30.214 72.267 28.7085C72.1552 28.5812 72.0166 28.4766 71.6589 28.1491C71.6589 29.65 71.6545 30.8826 71.6589 32.1106C71.6634 32.9839 71.489 33.7253 70.4384 33.7844C69.5666 33.8344 69.1285 33.2659 69.115 32.1015C69.0927 29.4181 69.0524 26.73 69.0837 24.0465C69.0837 23.7873 69.5889 23.2733 69.7499 23.3188C70.4295 23.4962 71.2253 23.6781 71.6858 24.1511C73.1119 25.6293 74.4085 27.2394 75.9867 29.0678L75.9911 29.0769Z" fill="black"/>
<path d="M82.5025 23.2774C83.9465 23.1592 85.5247 23.3366 86.8213 24.4918C88.4844 25.97 89.1014 27.8212 88.5202 30.0134C87.9837 32.0283 86.2535 33.5293 84.188 33.7476C83.2267 33.8476 82.2566 33.8249 81.2864 33.8204C80.3431 33.8204 79.8513 33.3291 79.8468 32.3376C79.8379 29.5723 79.7931 26.8069 79.8244 24.0415C79.8244 23.7823 80.2402 23.3684 80.5219 23.3138C81.0942 23.2001 81.7067 23.2774 82.5025 23.2774ZM82.337 31.196C84.0091 31.5326 85.1671 31.1278 85.8511 30.018C86.4681 29.0128 86.3921 27.6847 85.6633 26.725C84.9122 25.7426 83.7319 25.4197 82.3415 25.8336V31.196H82.337Z" fill="black"/>
<path d="M79.8129 16.1576C79.8129 14.7932 79.8531 13.4287 79.795 12.0687C79.7682 11.4001 80.0051 11.1727 80.6132 11.1818C81.8024 11.2 83.0006 11.1318 84.1853 11.2318C86.689 11.4365 88.7366 13.8153 88.7456 16.426C88.7545 19.0867 86.6622 21.47 84.1049 21.6565C83.1392 21.7293 82.169 21.6929 81.2033 21.6884C80.2779 21.6838 79.8576 21.1608 79.8576 20.2511C79.8576 18.8866 79.8576 17.5221 79.8576 16.1576C79.8442 16.1576 79.8308 16.1576 79.8129 16.1576ZM82.3076 13.5879C82.3076 15.2707 82.3076 16.8535 82.3076 18.4363C82.3076 18.6546 82.3434 18.873 82.3702 19.1277C83.7427 19.3687 84.932 19.2095 85.7859 18.0088C86.4386 17.09 86.4476 15.7847 85.7993 14.8068C84.9856 13.5833 83.8009 13.3695 82.3121 13.5879H82.3076Z" fill="black"/>
<path d="M67.9865 16.4195C67.9687 19.2713 65.6483 21.6137 62.854 21.6C60.0687 21.5864 57.7394 19.2167 57.7305 16.3877C57.7216 13.4859 60.0598 11.1526 62.939 11.1799C65.769 11.2118 68.0044 13.5268 67.9865 16.415V16.4195ZM65.7958 16.3695C65.7958 14.7185 64.5351 13.4222 62.9166 13.3995C61.258 13.3813 59.9212 14.7094 59.9257 16.3832C59.9301 18.0342 61.3161 19.4123 62.9301 19.3805C64.5172 19.3486 65.7958 18.0024 65.7914 16.3695H65.7958Z" fill="black"/>
<path d="M73.9024 11.1875C76.728 11.2239 78.9589 13.5572 78.9366 16.4453C78.9097 19.288 76.5715 21.6304 73.7772 21.6076C70.9472 21.5849 68.6134 19.1379 68.676 16.2634C68.7431 13.4071 71.0635 11.1511 73.9024 11.192V11.1875ZM73.7817 13.4071C72.1677 13.4253 70.8846 14.7261 70.8757 16.3544C70.8667 18.019 72.2124 19.3972 73.8398 19.3835C75.4627 19.3744 76.7772 17.9735 76.7369 16.2952C76.7012 14.6533 75.4046 13.3889 73.7817 13.4071Z" fill="black"/>
<path d="M68.4013 32.758C68.0928 33.0628 67.7754 33.6449 67.4043 33.6813C66.908 33.7314 66.3224 33.4357 65.8753 33.1355C65.5176 32.8945 65.3432 32.1576 65.0214 32.1122C64.0735 31.9803 63.0944 32.0348 62.1332 32.1258C61.9231 32.144 61.7129 32.6034 61.5744 32.8899C61.1899 33.7041 60.5818 34.0497 59.7637 33.6995C58.874 33.322 58.9008 32.5852 59.2227 31.7983C60.2912 29.1831 61.3508 26.5633 62.4238 23.9525C62.7457 23.1657 63.8366 23.0019 64.4759 23.6751C64.7486 23.9662 64.9409 24.3528 65.1018 24.7303C66.0809 27.0181 67.0422 29.3104 67.9989 31.6028C68.1286 31.912 68.2225 32.2395 68.4013 32.758ZM64.8246 30.0518C64.4446 29.0966 64.1048 28.237 63.6488 27.0909C63.1928 28.278 62.8709 29.1239 62.5177 30.0518H64.8291H64.8246Z" fill="black"/>
<path d="M52.6295 13.5198V15.4983C53.4656 15.4983 54.2658 15.5074 55.0661 15.4983C55.8664 15.4846 56.5281 15.7257 56.537 16.649C56.5504 17.5996 55.8932 17.9316 55.0438 17.9407C54.2748 17.9498 53.5013 17.9407 52.5848 17.9407C52.5848 18.8185 52.5848 19.5645 52.5848 20.3104C52.5803 21.1018 52.2495 21.6476 51.4224 21.6703C50.5372 21.6931 50.1572 21.12 50.1437 20.2922C50.108 17.495 50.0812 14.6932 50.1124 11.896C50.1124 11.655 50.5774 11.2229 50.8367 11.2183C52.7323 11.1592 54.628 11.182 56.5236 11.1956C57.2121 11.2002 57.6726 11.5504 57.6771 12.2917C57.6815 13.0559 57.2747 13.5016 56.5102 13.5152C55.2539 13.538 53.9976 13.5198 52.6206 13.5198H52.6295Z" fill="black"/>
<path d="M52.588 31.2106C54.0946 31.2106 55.4627 31.2243 56.8263 31.2106C57.7249 31.2015 58.409 31.4608 58.3956 32.5114C58.3777 33.5075 57.7071 33.7258 56.8621 33.7167C55.1498 33.6985 53.4374 33.7258 51.7251 33.7076C50.6164 33.694 50.1514 33.2437 50.138 32.1339C50.1022 29.4095 50.0799 26.6805 50.1201 23.9561C50.1201 23.6969 50.6163 23.2466 50.907 23.2238C51.658 23.1647 52.4896 23.2739 52.5567 24.3018C52.6282 25.3934 52.588 26.4986 52.588 27.5947C52.588 28.7273 52.588 29.8643 52.588 31.2152V31.2106Z" fill="black"/>
<path d="M37.8484 7.52884C39.7083 7.52884 41.5726 7.5061 43.4324 7.53339C45.3102 7.56068 46.799 8.73414 46.8079 10.6035C46.8303 14.6469 47.027 18.754 46.41 22.7156C45.2208 30.3749 38.0943 36.2695 30.4581 36.4105C26.9575 36.4741 23.4568 36.4423 19.9562 36.4196C18.0293 36.4105 16.5226 35.1915 16.5137 33.2767C16.4913 29.3106 16.3035 25.2808 16.8937 21.3875C18.0561 13.669 25.0261 7.79264 32.707 7.54249C34.4193 7.48791 36.1316 7.53339 37.8439 7.53339C37.8439 7.53339 37.8439 7.5243 37.8439 7.51975L37.8484 7.52884ZM24.0962 34.6093C26.2153 34.6093 28.3434 34.723 30.4537 34.5866C36.0601 34.2227 40.3118 31.5483 43.1687 26.5998C45.4711 22.6064 45.0911 18.2219 45.0017 13.8783C45.0017 13.851 44.8989 13.8237 44.8407 13.7918C41.4116 24.3211 34.4327 31.1572 24.0917 34.6093H24.0962ZM39.2612 9.35271C37.2761 9.35271 35.2866 9.29358 33.3016 9.3618C27.4761 9.56193 23.1081 12.2727 20.1619 17.3759C17.8549 21.3647 18.2484 25.7493 18.3467 30.0929C18.3467 30.1202 18.454 30.1429 18.4987 30.1611C21.9278 19.6364 28.8934 12.7958 39.2612 9.35271ZM20.2602 31.2345C27.4046 24.4348 34.3433 17.8262 41.4027 11.1083C32.1481 12.4228 22.4688 21.1964 20.2602 31.2345ZM43.0167 12.7867C35.9125 19.55 29.0364 26.0995 21.9815 32.8173C31.4775 31.4574 41.045 22.3244 43.0167 12.7867Z" fill="black"/>
</svg>
