<svg width="105" height="44" viewBox="0 0 105 44" fill="none" xmlns="http://www.w3.org/2000/svg">
<rect x="0.5" y="0.5" width="104" height="43" rx="9.5" fill="white"/>
<rect x="0.5" y="0.5" width="104" height="43" rx="9.5" stroke="#ECECEC"/>
<path d="M75.9916 29.0789C75.9916 27.3278 76.0363 25.936 75.9738 24.5533C75.9425 23.9211 75.7055 23.2889 76.6667 23.2889C77.4849 23.2889 78.4193 23.1934 78.5087 24.3896C78.5802 25.3311 78.5355 26.2817 78.5355 27.2232C78.5355 28.9242 78.5892 30.6299 78.4998 32.3264C78.4729 32.7994 78.1063 33.5271 77.7487 33.6363C77.3061 33.7727 76.5371 33.5544 76.2018 33.1996C74.8292 31.7624 73.5729 30.216 72.2675 28.7105C72.1557 28.5831 72.0171 28.4785 71.6594 28.151C71.6594 29.652 71.655 30.8846 71.6594 32.1126C71.6639 32.9859 71.4895 33.7272 70.4389 33.7864C69.5671 33.8364 69.1289 33.2679 69.1155 32.1035C69.0932 29.42 69.0529 26.732 69.0842 24.0485C69.0842 23.7892 69.5894 23.2753 69.7504 23.3208C70.4299 23.4981 71.2258 23.6801 71.6862 24.1531C73.1124 25.6313 74.409 27.2414 75.9872 29.0698L75.9916 29.0789Z" fill="black"/>
<path d="M82.503 23.2794C83.947 23.1611 85.5252 23.3385 86.8218 24.4938C88.4849 25.972 89.1019 27.8231 88.5207 30.0154C87.9842 32.0303 86.254 33.5312 84.1884 33.7495C83.2272 33.8496 82.2571 33.8269 81.2869 33.8223C80.3435 33.8223 79.8518 33.3311 79.8473 32.3396C79.8383 29.5742 79.7936 26.8089 79.8249 24.0435C79.8249 23.7842 80.2407 23.3703 80.5224 23.3158C81.0946 23.2021 81.7071 23.2794 82.503 23.2794ZM82.3375 31.1979C84.0096 31.5345 85.1676 31.1297 85.8516 30.0199C86.4686 29.0148 86.3926 27.6867 85.6638 26.727C84.9127 25.7446 83.7324 25.4216 82.342 25.8355V31.1979H82.3375Z" fill="black"/>
<path d="M79.8129 16.1596C79.8129 14.7951 79.8531 13.4306 79.795 12.0707C79.7682 11.4021 80.0051 11.1747 80.6132 11.1838C81.8024 11.202 83.0006 11.1337 84.1853 11.2338C86.689 11.4385 88.7366 13.8172 88.7456 16.4279C88.7545 19.0887 86.6622 21.472 84.1049 21.6585C83.1392 21.7312 82.169 21.6949 81.2033 21.6903C80.2779 21.6858 79.8576 21.1627 79.8576 20.253C79.8576 18.8886 79.8576 17.5241 79.8576 16.1596C79.8442 16.1596 79.8308 16.1596 79.8129 16.1596ZM82.3076 13.5898C82.3076 15.2727 82.3076 16.8555 82.3076 18.4383C82.3076 18.6566 82.3434 18.8749 82.3702 19.1296C83.7427 19.3707 84.932 19.2115 85.7859 18.0107C86.4386 17.092 86.4476 15.7866 85.7993 14.8087C84.9856 13.5853 83.8009 13.3715 82.3121 13.5898H82.3076Z" fill="black"/>
<path d="M67.987 16.4235C67.9691 19.2752 65.6488 21.6176 62.8545 21.604C60.0692 21.5903 57.7399 19.2207 57.731 16.3916C57.722 13.4898 60.0603 11.1565 62.9395 11.1838C65.7695 11.2157 68.0049 13.5307 67.987 16.4189V16.4235ZM65.7963 16.3734C65.7963 14.7224 64.5356 13.4261 62.9171 13.4034C61.2585 13.3852 59.9217 14.7133 59.9262 16.3871C59.9306 18.0381 61.3166 19.4162 62.9305 19.3844C64.5177 19.3526 65.7963 18.0063 65.7919 16.3734H65.7963Z" fill="black"/>
<path d="M73.9029 11.1895C76.7285 11.2258 78.9594 13.5591 78.937 16.4473C78.9102 19.2899 76.572 21.6323 73.7777 21.6096C70.9477 21.5868 68.6139 19.1399 68.6765 16.2653C68.7436 13.409 71.0639 11.1531 73.9029 11.194V11.1895ZM73.7822 13.409C72.1682 13.4272 70.8851 14.728 70.8762 16.3563C70.8672 18.021 72.2129 19.3991 73.8403 19.3855C75.4632 19.3764 76.7776 17.9755 76.7374 16.2972C76.7016 14.6552 75.4051 13.3908 73.7822 13.409Z" fill="black"/>
<path d="M68.4013 32.758C68.0928 33.0628 67.7754 33.6449 67.4043 33.6813C66.908 33.7314 66.3224 33.4357 65.8753 33.1355C65.5176 32.8945 65.3432 32.1576 65.0214 32.1122C64.0735 31.9803 63.0944 32.0348 62.1332 32.1258C61.9231 32.144 61.7129 32.6034 61.5744 32.8899C61.1899 33.7041 60.5818 34.0497 59.7637 33.6995C58.874 33.322 58.9008 32.5852 59.2227 31.7983C60.2912 29.1831 61.3508 26.5633 62.4238 23.9525C62.7457 23.1657 63.8366 23.0019 64.4759 23.6751C64.7486 23.9662 64.9409 24.3528 65.1018 24.7303C66.0809 27.0181 67.0422 29.3104 67.9989 31.6028C68.1286 31.912 68.2225 32.2395 68.4013 32.758ZM64.8246 30.0518C64.4446 29.0966 64.1048 28.237 63.6488 27.0909C63.1928 28.278 62.8709 29.1239 62.5177 30.0518H64.8291H64.8246Z" fill="black"/>
<path d="M52.6295 13.5237V15.5022C53.4656 15.5022 54.2658 15.5113 55.0661 15.5022C55.8664 15.4885 56.5281 15.7296 56.537 16.6529C56.5504 17.6035 55.8932 17.9355 55.0438 17.9446C54.2748 17.9537 53.5013 17.9446 52.5848 17.9446C52.5848 18.8224 52.5848 19.5684 52.5848 20.3143C52.5803 21.1057 52.2495 21.6515 51.4224 21.6742C50.5372 21.697 50.1572 21.1239 50.1437 20.2961C50.108 17.4989 50.0812 14.6971 50.1124 11.8999C50.1124 11.6589 50.5774 11.2268 50.8367 11.2223C52.7323 11.1631 54.628 11.1859 56.5236 11.1995C57.2121 11.2041 57.6726 11.5543 57.6771 12.2956C57.6815 13.0598 57.2747 13.5055 56.5102 13.5191C55.2539 13.5419 53.9976 13.5237 52.6206 13.5237H52.6295Z" fill="black"/>
<path d="M52.588 31.2145C54.0946 31.2145 55.4627 31.2282 56.8263 31.2145C57.7249 31.2054 58.409 31.4647 58.3956 32.5153C58.3777 33.5114 57.7071 33.7297 56.8621 33.7206C55.1498 33.7024 53.4374 33.7297 51.7251 33.7115C50.6164 33.6979 50.1514 33.2476 50.138 32.1378C50.1022 29.4134 50.0799 26.6844 50.1201 23.96C50.1201 23.7008 50.6163 23.2505 50.907 23.2277C51.658 23.1686 52.4896 23.2778 52.5567 24.3057C52.6282 25.3973 52.588 26.5025 52.588 27.5986C52.588 28.7312 52.588 29.8682 52.588 31.2191V31.2145Z" fill="black"/>
<path d="M37.8479 7.5308C39.7078 7.5308 41.5721 7.50806 43.432 7.53535C45.3097 7.56264 46.7985 8.73609 46.8074 10.6054C46.8298 14.6489 47.0265 18.756 46.4095 22.7175C45.2203 30.3768 38.0938 36.2714 30.4577 36.4124C26.957 36.4761 23.4564 36.4443 19.9557 36.4215C18.0288 36.4124 16.5221 35.1935 16.5132 33.2786C16.4908 29.3125 16.3031 25.2828 16.8932 21.3894C18.0556 13.671 25.0256 7.7946 32.7065 7.54444C34.4188 7.48986 36.1311 7.53535 37.8434 7.53535C37.8434 7.53535 37.8434 7.52625 37.8434 7.5217L37.8479 7.5308ZM24.0957 34.6113C26.2149 34.6113 28.343 34.725 30.4532 34.5886C36.0596 34.2247 40.3113 31.5503 43.1682 26.6018C45.4706 22.6084 45.0906 18.2238 45.0012 13.8802C45.0012 13.8529 44.8984 13.8256 44.8403 13.7938C41.4111 24.3231 34.4322 31.1591 24.0912 34.6113H24.0957ZM39.2607 9.35466C37.2756 9.35466 35.2861 9.29553 33.3011 9.36376C27.4756 9.56388 23.1076 12.2747 20.1614 17.3778C17.8544 21.3667 18.2479 25.7512 18.3462 30.0948C18.3462 30.1221 18.4535 30.1449 18.4982 30.1631C21.9273 19.6383 28.8929 12.7977 39.2607 9.35466ZM20.2597 31.2365C27.4041 24.4368 34.3428 17.8281 41.4022 11.1103C32.1476 12.4248 22.4683 21.1984 20.2597 31.2365ZM43.0162 12.7886C35.912 19.5519 29.0359 26.1015 21.981 32.8193C31.477 31.4593 41.0445 22.3264 43.0162 12.7886Z" fill="black"/>
</svg>
