<svg width="150" height="19" viewBox="0 0 150 19" fill="none" xmlns="http://www.w3.org/2000/svg">
<path d="M13.4301 0.00839659C14.5983 0.00839659 15.7694 -0.00604871 16.9377 0.0112857C18.1172 0.0286202 19.0523 0.774002 19.0579 1.96141C19.072 4.5298 19.1956 7.13863 18.808 9.65502C18.061 14.5202 13.5845 18.2645 8.78795 18.354C6.58905 18.3945 4.39014 18.3742 2.19123 18.3598C0.98085 18.354 0.0344496 17.5798 0.0288329 16.3635C0.0147914 13.8442 -0.103158 11.2845 0.267539 8.81141C0.9977 3.90865 5.37586 0.175963 10.2005 0.0170635C11.2761 -0.0176054 12.3517 0.0112857 13.4273 0.0112857C13.4273 0.0112857 13.4273 0.00550739 13.4273 0.00261831L13.4301 0.00839659ZM4.79173 17.21C6.12287 17.21 7.45962 17.2822 8.78514 17.1955C12.3068 16.9644 14.9775 15.2656 16.772 12.1223C18.2183 9.58568 17.9796 6.80061 17.9234 4.04155C17.9234 4.02421 17.8588 4.00688 17.8223 3.98665C15.6683 10.6749 11.2845 15.0171 4.78892 17.21H4.79173ZM14.3175 1.16692C13.0706 1.16692 11.8209 1.12936 10.574 1.17269C6.91481 1.29981 4.17109 3.0217 2.32041 6.26324C0.871325 8.79696 1.11846 11.582 1.18024 14.3411C1.18024 14.3584 1.24764 14.3729 1.27572 14.3844C3.4297 7.69911 7.80505 3.35395 14.3175 1.16692ZM2.3822 15.0663C6.86988 10.7471 11.2284 6.54926 15.6627 2.2821C9.84949 3.11704 3.7695 8.69007 2.3822 15.0663ZM16.6765 3.34817C12.2141 7.64422 7.89491 11.8045 3.4634 16.0717C9.42825 15.2078 15.438 9.40656 16.6765 3.34817Z" fill="white"/>
<path d="M24.981 5.13191V8.34712C26.3244 8.34712 27.6104 8.3619 28.8963 8.34712C30.1823 8.32495 31.2456 8.71668 31.2599 10.2171C31.2815 11.7619 30.2254 12.3015 28.8604 12.3162C27.6247 12.331 26.3819 12.3162 24.9091 12.3162C24.9091 13.7428 24.9091 14.9549 24.9091 16.1671C24.9019 17.4532 24.3703 18.3401 23.0412 18.3771C21.6188 18.414 21.0081 17.4827 20.9865 16.1375C20.9291 11.5919 20.886 7.03886 20.9363 2.49323C20.9363 2.10149 21.6834 1.39932 22.1001 1.39193C25.1462 1.29584 28.1923 1.3328 31.2384 1.35497C32.3447 1.36236 33.0847 1.93149 33.0919 3.13627C33.0991 4.378 32.4453 5.10235 31.2168 5.12452C29.1981 5.16148 27.1793 5.13191 24.9666 5.13191H24.981Z" fill="white"/>
<path d="M51.3589 10.2044C51.3303 14.7036 47.6109 18.3991 43.1318 18.3776C38.6671 18.356 34.9333 14.6175 34.919 10.1541C34.9047 5.57599 38.6527 1.89482 43.268 1.93787C47.8043 1.9881 51.3876 5.64057 51.3589 10.1972V10.2044ZM47.8473 10.1254C47.8473 7.52062 45.8264 5.47553 43.2321 5.43965C40.5734 5.41095 38.4306 7.50627 38.4377 10.147C38.4449 12.7518 40.6665 14.926 43.2536 14.8758C45.7977 14.8256 47.8473 12.7015 47.8402 10.1254H47.8473Z" fill="white"/>
<path d="M61.5605 1.3291C66.0872 1.38863 69.6612 5.20619 69.6254 9.93163C69.5825 14.5826 65.8365 18.4151 61.3599 18.3779C56.8261 18.3407 53.0872 14.3371 53.1875 9.63396C53.295 4.96062 57.0123 1.26957 61.5605 1.33654V1.3291ZM61.3671 4.96062C58.7814 4.99038 56.7258 7.11869 56.7115 9.7828C56.6971 12.5064 58.853 14.7612 61.4602 14.7389C64.0602 14.724 66.166 12.432 66.1015 9.68605C66.0442 6.99962 63.9671 4.93085 61.3671 4.96062Z" fill="white"/>
<path d="M71.4847 9.3985C71.4847 7.18837 71.5503 4.97823 71.4555 2.77546C71.4117 1.69249 71.7985 1.32413 72.791 1.33887C74.7322 1.36834 76.688 1.25783 78.6219 1.41991C82.7086 1.75143 86.051 5.60443 86.0656 9.83316C86.0802 14.1429 82.6648 18.0033 78.4905 18.3054C76.9142 18.4232 75.3306 18.3643 73.7543 18.3569C72.2436 18.3496 71.5576 17.5023 71.5576 16.0289C71.5576 13.8188 71.5576 11.6086 71.5576 9.3985C71.5357 9.3985 71.5139 9.3985 71.4847 9.3985ZM75.5568 5.23608C75.5568 7.96191 75.5568 10.5257 75.5568 13.0894C75.5568 13.4431 75.6152 13.7967 75.659 14.2092C77.8994 14.5997 79.8406 14.3418 81.2345 12.3969C82.2999 10.9088 82.3145 8.7944 81.2564 7.21047C79.9282 5.22871 77.9943 4.88245 75.5641 5.23608H75.5568Z" fill="white"/>
<path d="M91.7289 14.3109C94.0509 14.3109 96.1592 14.333 98.2607 14.3109C99.6456 14.2961 100.7 14.7168 100.679 16.4218C100.652 18.0382 99.618 18.3925 98.3158 18.3777C95.6769 18.3482 93.038 18.3925 90.3992 18.363C88.6904 18.3408 87.9739 17.6101 87.9532 15.8092C87.8981 11.388 87.8636 6.9595 87.9256 2.53836C87.9256 2.11765 88.6904 1.38694 89.1383 1.35003C90.2958 1.25408 91.5774 1.43123 91.6807 3.0993C91.7909 4.87071 91.7289 6.66426 91.7289 8.44305C91.7289 10.2809 91.7289 12.1261 91.7289 14.3182V14.3109Z" fill="white"/>
<path d="M117.119 16.642C116.639 17.133 116.145 18.071 115.567 18.1296C114.794 18.2102 113.882 17.7339 113.186 17.2502C112.629 16.8618 112.357 15.6747 111.856 15.6014C110.38 15.3889 108.855 15.4768 107.358 15.6234C107.031 15.6527 106.703 16.3929 106.488 16.8545C105.889 18.1663 104.942 18.7232 103.668 18.1589C102.282 17.5507 102.324 16.3635 102.825 15.0958C104.489 10.8821 106.139 6.66108 107.81 2.45472C108.312 1.18696 110.011 0.923146 111.006 2.00771C111.431 2.47671 111.73 3.0996 111.981 3.70784C113.506 7.39389 115.003 11.0873 116.493 14.7807C116.695 15.279 116.841 15.8066 117.119 16.642ZM111.549 12.2818C110.958 10.7429 110.428 9.35783 109.718 7.51114C109.008 9.42379 108.507 10.7868 107.957 12.2818H111.556H111.549Z" fill="white"/>
<path d="M130.058 10.7313C130.058 7.88861 130.129 5.62926 130.029 3.38466C129.979 2.35835 129.598 1.33204 131.142 1.33204C132.456 1.33204 133.956 1.17699 134.1 3.11886C134.215 4.64725 134.143 6.1904 134.143 7.71879C134.143 10.4802 134.229 13.2491 134.086 16.0031C134.042 16.771 133.454 17.9524 132.879 18.1296C132.169 18.3511 130.934 17.9967 130.395 17.4207C128.191 15.0875 126.173 12.5772 124.077 10.1332C123.897 9.92647 123.675 9.75665 123.1 9.22503C123.1 11.6616 123.093 13.6625 123.1 15.6561C123.108 17.0737 122.828 18.2772 121.14 18.3732C119.74 18.4544 119.037 17.5315 119.015 15.6413C118.979 11.285 118.914 6.92137 118.965 2.56509C118.965 2.14423 119.776 1.30989 120.035 1.38373C121.126 1.67168 122.404 1.96703 123.143 2.73491C125.434 5.13456 127.516 7.74833 130.05 10.7165L130.058 10.7313Z" fill="white"/>
<path d="M140.217 1.3796C142.484 1.18903 144.962 1.47488 146.997 3.33658C149.608 5.71867 150.577 8.70178 149.664 12.2346C148.822 15.4816 146.106 17.9003 142.863 18.2521C141.354 18.4134 139.831 18.3767 138.308 18.3694C136.827 18.3694 136.054 17.5778 136.047 15.98C136.033 11.5236 135.963 7.0673 136.012 2.61095C136.012 2.19317 136.665 1.52618 137.107 1.43823C138.006 1.25499 138.967 1.3796 140.217 1.3796ZM139.957 14.1403C142.582 14.6827 144.4 14.0303 145.474 12.2419C146.443 10.6221 146.323 8.4819 145.179 6.93537C144 5.35219 142.147 4.8318 139.964 5.49878V14.1403H139.957Z" fill="white"/>
</svg>
