<svg width="108" height="44" viewBox="0 0 108 44" fill="none" xmlns="http://www.w3.org/2000/svg">
<rect x="0.423077" y="0.423077" width="106.462" height="43.1538" rx="21.5769" fill="white"/>
<rect x="0.423077" y="0.423077" width="106.462" height="43.1538" rx="21.5769" stroke="#ECECEC" stroke-width="0.846154"/>
<path d="M77.8876 29.3838C77.8876 27.5571 77.9337 26.1052 77.8692 24.6627C77.8369 24.0032 77.5924 23.3437 78.584 23.3437C79.4281 23.3437 80.392 23.244 80.4842 24.4919C80.558 25.4741 80.5119 26.4658 80.5119 27.4479C80.5119 29.2225 80.5673 31.0018 80.475 32.7716C80.4473 33.265 80.0692 34.0242 79.7002 34.1381C79.2436 34.2804 78.4503 34.0527 78.1044 33.6826C76.6884 32.1832 75.3924 30.57 74.0457 28.9995C73.9304 28.8666 73.7874 28.7575 73.4184 28.4159C73.4184 29.9816 73.4138 31.2675 73.4184 32.5486C73.4231 33.4596 73.2432 34.233 72.1593 34.2947C71.2599 34.3468 70.808 33.7538 70.7941 32.5391C70.7711 29.7397 70.7296 26.9355 70.7618 24.1361C70.7618 23.8656 71.283 23.3295 71.4491 23.3769C72.1501 23.5619 72.9711 23.7517 73.4461 24.2452C74.9174 25.7873 76.2549 27.4669 77.883 29.3743L77.8876 29.3838Z" fill="black"/>
<path d="M84.606 23.3374C86.0957 23.214 87.7238 23.3991 89.0614 24.6042C90.7771 26.1463 91.4135 28.0774 90.814 30.3644C90.2605 32.4663 88.4756 34.0321 86.3448 34.2599C85.3532 34.3643 84.3524 34.3405 83.3515 34.3358C82.3784 34.3358 81.871 33.8234 81.8664 32.789C81.8572 29.9042 81.8111 27.0193 81.8433 24.1345C81.8433 23.864 82.2723 23.4323 82.5628 23.3753C83.1532 23.2567 83.7851 23.3374 84.606 23.3374ZM84.4354 31.598C86.1603 31.9492 87.3549 31.5269 88.0605 30.3692C88.697 29.3206 88.6186 27.9351 87.8668 26.9339C87.092 25.909 85.8744 25.5722 84.44 26.0039V31.598H84.4354Z" fill="black"/>
<path d="M81.833 15.9061C81.833 14.4826 81.8746 13.0592 81.8146 11.6405C81.7869 10.943 82.0314 10.7058 82.6586 10.7153C83.8855 10.7343 85.1215 10.6631 86.3437 10.7675C88.9265 10.981 91.0389 13.4625 91.0481 16.186C91.0573 18.9617 88.8989 21.448 86.2607 21.6425C85.2645 21.7184 84.2636 21.6805 83.2674 21.6757C82.3127 21.671 81.8792 21.1253 81.8792 20.1764C81.8792 18.7529 81.8792 17.3295 81.8792 15.9061C81.8653 15.9061 81.8515 15.9061 81.833 15.9061ZM84.4066 13.2253C84.4066 14.9808 84.4066 16.632 84.4066 18.2832C84.4066 18.511 84.4435 18.7387 84.4712 19.0044C85.8871 19.2559 87.114 19.0898 87.9949 17.8372C88.6682 16.8788 88.6775 15.517 88.0087 14.4969C87.1693 13.2205 85.9471 12.9975 84.4112 13.2253H84.4066Z" fill="black"/>
<path d="M69.6311 16.1811C69.6126 19.1561 67.2189 21.5996 64.3363 21.5854C61.463 21.5712 59.06 19.0991 59.0508 16.1479C59.0416 13.1207 61.4537 10.6866 64.424 10.7151C67.3434 10.7483 69.6495 13.1634 69.6311 16.1763V16.1811ZM67.3711 16.1289C67.3711 14.4065 66.0705 13.0543 64.4009 13.0305C62.6898 13.0116 61.3108 14.397 61.3154 16.1431C61.32 17.8655 62.7498 19.3032 64.4147 19.2699C66.052 19.2367 67.3711 17.8323 67.3665 16.1289H67.3711Z" fill="black"/>
<path d="M75.7327 10.7227C78.6476 10.7606 80.9491 13.1947 80.926 16.2076C80.8983 19.1731 78.4862 21.6167 75.6036 21.593C72.6841 21.5692 70.2765 19.0165 70.3411 16.0178C70.4103 13.0381 72.804 10.6847 75.7327 10.7274V10.7227ZM75.6082 13.0381C73.9432 13.0571 72.6195 14.4141 72.6103 16.1127C72.6011 17.8493 73.9893 19.287 75.6681 19.2728C77.3424 19.2633 78.6983 17.8019 78.6568 16.0511C78.6199 14.3382 77.2824 13.0191 75.6082 13.0381Z" fill="black"/>
<path d="M70.0593 33.2233C69.741 33.5412 69.4136 34.1486 69.0307 34.1865C68.5188 34.2387 67.9146 33.9303 67.4534 33.6171C67.0844 33.3657 66.9045 32.597 66.5725 32.5496C65.5947 32.412 64.5846 32.4689 63.593 32.5638C63.3763 32.5828 63.1595 33.062 63.0165 33.3609C62.6199 34.2102 61.9926 34.5708 61.1486 34.2055C60.2308 33.8117 60.2584 33.043 60.5905 32.2222C61.6928 29.4939 62.7859 26.7609 63.8928 24.0374C64.2249 23.2166 65.3503 23.0457 66.0098 23.748C66.2911 24.0516 66.4894 24.4549 66.6555 24.8488C67.6655 27.2354 68.6572 29.6268 69.6442 32.0181C69.7779 32.3408 69.8748 32.6824 70.0593 33.2233ZM66.3695 30.4002C65.9775 29.4038 65.627 28.507 65.1565 27.3113C64.6861 28.5497 64.354 29.4322 63.9897 30.4002H66.3741H66.3695Z" fill="black"/>
<path d="M53.7867 13.156V15.22C54.6491 15.22 55.4747 15.2295 56.3003 15.22C57.1259 15.2058 57.8085 15.4573 57.8177 16.4205C57.8315 17.4121 57.1535 17.7585 56.2772 17.768C55.4839 17.7775 54.686 17.768 53.7405 17.768C53.7405 18.6837 53.7405 19.4619 53.7405 20.24C53.7359 21.0656 53.3946 21.635 52.5414 21.6587C51.6282 21.6824 51.2362 21.0846 51.2223 20.221C51.1854 17.303 51.1577 14.3802 51.19 11.4621C51.19 11.2107 51.6697 10.7599 51.9372 10.7552C53.8927 10.6935 55.8483 10.7172 57.8038 10.7315C58.5141 10.7362 58.9892 11.1015 58.9938 11.8749C58.9984 12.6721 58.5787 13.1371 57.79 13.1513C56.494 13.175 55.198 13.156 53.7774 13.156H53.7867Z" fill="black"/>
<path d="M53.7438 31.6148C55.2981 31.6148 56.7094 31.6291 58.1161 31.6148C59.0432 31.6053 59.7488 31.8758 59.735 32.9718C59.7165 34.011 59.0247 34.2387 58.153 34.2292C56.3866 34.2102 54.6201 34.2387 52.8537 34.2197C51.7099 34.2055 51.2302 33.7358 51.2164 32.578C51.1795 29.7359 51.1564 26.889 51.1979 24.0469C51.1979 23.7764 51.7099 23.3067 52.0097 23.283C52.7845 23.2213 53.6424 23.3352 53.7115 24.4075C53.7853 25.5463 53.7438 26.6992 53.7438 27.8427C53.7438 29.0242 53.7438 30.2104 53.7438 31.6196V31.6148Z" fill="black"/>
<path d="M38.537 6.90441C40.4556 6.90441 42.3789 6.88069 44.2976 6.90916C46.2347 6.93763 47.7705 8.16178 47.7797 10.1119C47.8028 14.33 48.0057 18.6146 47.3692 22.7473C46.1424 30.7375 38.7907 36.8867 30.9131 37.0338C27.3018 37.1002 23.6905 37.067 20.0792 37.0433C18.0913 37.0338 16.537 35.7622 16.5278 33.7647C16.5048 29.6272 16.3111 25.4233 16.9199 21.3618C18.119 13.3099 25.3093 7.17961 33.233 6.91865C34.9995 6.86171 36.7659 6.90916 38.5324 6.90916C38.5324 6.90916 38.5324 6.89967 38.5324 6.89493L38.537 6.90441ZM24.35 35.1549C26.5362 35.1549 28.7316 35.2735 30.9085 35.1312C36.6921 34.7516 41.0783 31.9616 44.0254 26.7993C46.4007 22.6334 46.0087 18.0594 45.9164 13.5281C45.9164 13.4997 45.8103 13.4712 45.7504 13.438C42.2129 24.4222 35.0133 31.5536 24.3454 35.1549H24.35ZM39.9944 8.80708C37.9466 8.80708 35.8942 8.74539 33.8464 8.81656C27.8368 9.02533 23.3307 11.8532 20.2913 17.1769C17.9115 21.3381 18.3173 25.912 18.4188 30.4433C18.4188 30.4718 18.5295 30.4955 18.5756 30.5145C22.1131 19.535 29.2989 12.3989 39.9944 8.80708ZM20.3928 31.6342C27.763 24.5408 34.9211 17.6466 42.2036 10.6386C32.6565 12.0098 22.6712 21.1625 20.3928 31.6342ZM43.8686 12.3894C36.5399 19.4449 29.4464 26.2774 22.1685 33.2854C31.9647 31.8667 41.8347 22.3392 43.8686 12.3894Z" fill="black"/>
</svg>
