<svg width="108" height="44" viewBox="0 0 108 44" fill="none" xmlns="http://www.w3.org/2000/svg">
<rect x="0.423077" y="0.423077" width="106.462" height="43.1538" rx="9.57692" fill="white"/>
<rect x="0.423077" y="0.423077" width="106.462" height="43.1538" rx="9.57692" stroke="#ECECEC" stroke-width="0.846154"/>
<path d="M77.8886 29.3838C77.8886 27.5571 77.9347 26.1052 77.8701 24.6627C77.8378 24.0032 77.5934 23.3437 78.585 23.3437C79.429 23.3437 80.393 23.244 80.4852 24.4919C80.559 25.4741 80.5129 26.4658 80.5129 27.4479C80.5129 29.2225 80.5682 31.0018 80.476 32.7716C80.4483 33.265 80.0701 34.0242 79.7012 34.1381C79.2446 34.2804 78.4513 34.0527 78.1054 33.6826C76.6894 32.1832 75.3934 30.57 74.0467 28.9995C73.9314 28.8666 73.7884 28.7575 73.4194 28.4159C73.4194 29.9816 73.4148 31.2675 73.4194 32.5486C73.424 33.4596 73.2441 34.233 72.1603 34.2947C71.2609 34.3468 70.8089 33.7538 70.7951 32.5391C70.772 29.7397 70.7305 26.9355 70.7628 24.1361C70.7628 23.8656 71.284 23.3295 71.45 23.3769C72.1511 23.5619 72.972 23.7517 73.4471 24.2452C74.9184 25.7873 76.2559 27.4669 77.884 29.3743L77.8886 29.3838Z" fill="black"/>
<path d="M84.6046 23.3374C86.0943 23.214 87.7224 23.3991 89.0599 24.6042C90.7756 26.1463 91.4121 28.0774 90.8125 30.3644C90.259 32.4663 88.4741 34.0321 86.3433 34.2599C85.3517 34.3643 84.3509 34.3405 83.3501 34.3358C82.3769 34.3358 81.8696 33.8234 81.8649 32.789C81.8557 29.9042 81.8096 27.0193 81.8419 24.1345C81.8419 23.864 82.2708 23.4323 82.5614 23.3753C83.1517 23.2567 83.7836 23.3374 84.6046 23.3374ZM84.4339 31.598C86.1588 31.9492 87.3534 31.5269 88.0591 30.3692C88.6955 29.3206 88.6171 27.9351 87.8653 26.9339C87.0905 25.909 85.8729 25.5722 84.4385 26.0039V31.598H84.4339Z" fill="black"/>
<path d="M81.8311 15.9061C81.8311 14.4826 81.8726 13.0592 81.8126 11.6405C81.785 10.943 82.0294 10.7058 82.6567 10.7153C83.8835 10.7343 85.1196 10.6631 86.3418 10.7675C88.9246 10.981 91.0369 13.4625 91.0462 16.186C91.0554 18.9617 88.8969 21.448 86.2588 21.6425C85.2625 21.7184 84.2617 21.6805 83.2655 21.6757C82.3108 21.671 81.8772 21.1253 81.8772 20.1764C81.8772 18.7529 81.8772 17.3295 81.8772 15.9061C81.8634 15.9061 81.8495 15.9061 81.8311 15.9061ZM84.4047 13.2253C84.4047 14.9808 84.4047 16.632 84.4047 18.2832C84.4047 18.511 84.4416 18.7387 84.4692 19.0044C85.8852 19.2559 87.112 19.0898 87.9929 17.8372C88.6663 16.8788 88.6755 15.517 88.0068 14.4969C87.1673 13.2205 85.9451 12.9975 84.4093 13.2253H84.4047Z" fill="black"/>
<path d="M69.6306 16.1811C69.6121 19.1561 67.2184 21.5996 64.3358 21.5854C61.4625 21.5712 59.0595 19.0991 59.0503 16.1479C59.0411 13.1207 61.4533 10.6866 64.4235 10.7151C67.343 10.7483 69.649 13.1634 69.6306 16.1763V16.1811ZM67.3706 16.1289C67.3706 14.4065 66.07 13.0543 64.4004 13.0305C62.6893 13.0116 61.3103 14.397 61.3149 16.1431C61.3195 17.8655 62.7493 19.3032 64.4142 19.2699C66.0516 19.2367 67.3706 17.8323 67.366 16.1289H67.3706Z" fill="black"/>
<path d="M75.7342 10.7227C78.6491 10.7606 80.9505 13.1947 80.9275 16.2076C80.8998 19.1731 78.4876 21.6167 75.605 21.593C72.6855 21.5692 70.278 19.0165 70.3426 16.0178C70.4118 13.0381 72.8055 10.6847 75.7342 10.7274V10.7227ZM75.6097 13.0381C73.9447 13.0571 72.621 14.4141 72.6118 16.1127C72.6025 17.8493 73.9908 19.287 75.6696 19.2728C77.3438 19.2633 78.6998 17.8019 78.6583 16.0511C78.6214 14.3382 77.2839 13.0191 75.6097 13.0381Z" fill="black"/>
<path d="M70.0597 33.2233C69.7415 33.5412 69.414 34.1486 69.0312 34.1865C68.5193 34.2387 67.9151 33.9303 67.4539 33.6171C67.0849 33.3657 66.905 32.597 66.573 32.5496C65.5952 32.412 64.5851 32.4689 63.5935 32.5638C63.3767 32.5828 63.16 33.062 63.017 33.3609C62.6203 34.2102 61.9931 34.5708 61.1491 34.2055C60.2313 33.8117 60.2589 33.043 60.591 32.2222C61.6933 29.4939 62.7864 26.7609 63.8933 24.0374C64.2254 23.2166 65.3507 23.0457 66.0103 23.748C66.2916 24.0516 66.4899 24.4549 66.656 24.8488C67.666 27.2354 68.6577 29.6268 69.6446 32.0181C69.7784 32.3408 69.8753 32.6824 70.0597 33.2233ZM66.37 30.4002C65.978 29.4038 65.6275 28.507 65.157 27.3113C64.6866 28.5497 64.3545 29.4322 63.9902 30.4002H66.3746H66.37Z" fill="black"/>
<path d="M53.7881 13.156V15.22C54.6506 15.22 55.4762 15.2295 56.3018 15.22C57.1273 15.2058 57.8099 15.4573 57.8191 16.4205C57.833 17.4121 57.155 17.7585 56.2787 17.768C55.4854 17.7775 54.6875 17.768 53.742 17.768C53.742 18.6837 53.742 19.4619 53.742 20.24C53.7374 21.0656 53.3961 21.635 52.5429 21.6587C51.6297 21.6824 51.2376 21.0846 51.2238 20.221C51.1869 17.303 51.1592 14.3802 51.1915 11.4621C51.1915 11.2107 51.6712 10.7599 51.9387 10.7552C53.8942 10.6935 55.8498 10.7172 57.8053 10.7315C58.5156 10.7362 58.9906 11.1015 58.9952 11.8749C58.9999 12.6721 58.5802 13.1371 57.7915 13.1513C56.4955 13.175 55.1995 13.156 53.7789 13.156H53.7881Z" fill="black"/>
<path d="M53.7453 31.6148C55.2996 31.6148 56.7109 31.6291 58.1176 31.6148C59.0446 31.6053 59.7503 31.8758 59.7365 32.9718C59.718 34.011 59.0262 34.2387 58.1545 34.2292C56.388 34.2102 54.6216 34.2387 52.8551 34.2197C51.7113 34.2055 51.2317 33.7358 51.2178 32.578C51.1809 29.7359 51.1579 26.889 51.1994 24.0469C51.1994 23.7764 51.7113 23.3067 52.0111 23.283C52.786 23.2213 53.6438 23.3352 53.713 24.4075C53.7868 25.5463 53.7453 26.6992 53.7453 27.8427C53.7453 29.0242 53.7453 30.2104 53.7453 31.6196V31.6148Z" fill="black"/>
<path d="M38.5365 6.90441C40.4551 6.90441 42.3784 6.88069 44.2971 6.90916C46.2342 6.93763 47.77 8.16178 47.7792 10.1119C47.8023 14.33 48.0052 18.6146 47.3688 22.7473C46.1419 30.7375 38.7902 36.8867 30.9126 37.0338C27.3013 37.1002 23.69 37.067 20.0787 37.0433C18.0909 37.0338 16.5366 35.7622 16.5273 33.7647C16.5043 29.6272 16.3106 25.4233 16.9194 21.3618C18.1185 13.3099 25.3089 7.17961 33.2325 6.91865C34.999 6.86171 36.7654 6.90916 38.5319 6.90916C38.5319 6.90916 38.5319 6.89967 38.5319 6.89493L38.5365 6.90441ZM24.3495 35.1549C26.5357 35.1549 28.7311 35.2735 30.908 35.1312C36.6916 34.7516 41.0778 31.9616 44.0249 26.7993C46.4002 22.6334 46.0082 18.0594 45.9159 13.5281C45.9159 13.4997 45.8098 13.4712 45.7499 13.438C42.2124 24.4222 35.0128 31.5536 24.3449 35.1549H24.3495ZM39.9939 8.80708C37.9461 8.80708 35.8937 8.74539 33.8459 8.81656C27.8363 9.02533 23.3302 11.8532 20.2908 17.1769C17.911 21.3381 18.3168 25.912 18.4183 30.4433C18.4183 30.4718 18.529 30.4955 18.5751 30.5145C22.1126 19.535 29.2984 12.3989 39.9939 8.80708ZM20.3923 31.6342C27.7625 24.5408 34.9206 17.6466 42.2031 10.6386C32.656 12.0098 22.6707 21.1625 20.3923 31.6342ZM43.8681 12.3894C36.5394 19.4449 29.446 26.2774 22.168 33.2854C31.9642 31.8667 41.8342 22.3392 43.8681 12.3894Z" fill="black"/>
</svg>
