<svg width="108" height="44" viewBox="0 0 108 44" fill="none" xmlns="http://www.w3.org/2000/svg">
<rect x="0.423077" y="0.423077" width="106.462" height="43.1538" rx="21.5769" fill="white"/>
<rect x="0.423077" y="0.423077" width="106.462" height="43.1538" rx="21.5769" stroke="#ECECEC" stroke-width="0.846154"/>
<path d="M77.8888 29.3838C77.8888 27.5571 77.9349 26.1052 77.8704 24.6627C77.8381 24.0032 77.5936 23.3437 78.5853 23.3437C79.4293 23.3437 80.3932 23.244 80.4855 24.4919C80.5593 25.4741 80.5131 26.4658 80.5131 27.4479C80.5131 29.2225 80.5685 31.0018 80.4762 32.7716C80.4486 33.265 80.0704 34.0242 79.7014 34.1381C79.2448 34.2804 78.4515 34.0527 78.1056 33.6826C76.6897 32.1832 75.3937 30.57 74.0469 28.9995C73.9316 28.8666 73.7886 28.7575 73.4197 28.4159C73.4197 29.9816 73.415 31.2675 73.4197 32.5486C73.4243 33.4596 73.2444 34.233 72.1605 34.2947C71.2612 34.3468 70.8092 33.7538 70.7953 32.5391C70.7723 29.7397 70.7308 26.9355 70.7631 24.1361C70.7631 23.8656 71.2842 23.3295 71.4503 23.3769C72.1513 23.5619 72.9723 23.7517 73.4473 24.2452C74.9186 25.7873 76.2561 27.4669 77.8842 29.3743L77.8888 29.3838Z" fill="black"/>
<path d="M84.6045 23.3381C86.0942 23.2147 87.7223 23.3998 89.0598 24.605C90.7755 26.147 91.412 28.0781 90.8124 30.3651C90.259 32.4671 88.4741 34.0329 86.3433 34.2606C85.3517 34.365 84.3508 34.3413 83.35 34.3365C82.3768 34.3365 81.8695 33.8241 81.8649 32.7897C81.8557 29.9049 81.8095 27.0201 81.8418 24.1352C81.8418 23.8648 82.2707 23.433 82.5613 23.3761C83.1517 23.2574 83.7835 23.3381 84.6045 23.3381ZM84.4338 31.5988C86.1588 31.9499 87.3533 31.5276 88.059 30.3699C88.6955 29.3213 88.6171 27.9358 87.8653 26.9347C87.0904 25.9098 85.8728 25.5729 84.4385 26.0047V31.5988H84.4338Z" fill="black"/>
<path d="M81.8312 15.9061C81.8312 14.4826 81.8727 13.0592 81.8128 11.6405C81.7851 10.943 82.0295 10.7058 82.6568 10.7153C83.8836 10.7343 85.1197 10.6631 86.3419 10.7675C88.9247 10.981 91.0371 13.4625 91.0463 16.186C91.0555 18.9617 88.897 21.448 86.2589 21.6425C85.2626 21.7184 84.2618 21.6805 83.2656 21.6757C82.3109 21.671 81.8773 21.1253 81.8773 20.1764C81.8773 18.7529 81.8773 17.3295 81.8773 15.9061C81.8635 15.9061 81.8497 15.9061 81.8312 15.9061ZM84.4048 13.2253C84.4048 14.9808 84.4048 16.632 84.4048 18.2832C84.4048 18.511 84.4417 18.7387 84.4694 19.0044C85.8853 19.2559 87.1121 19.0898 87.993 17.8372C88.6664 16.8788 88.6756 15.517 88.0069 14.4969C87.1675 13.2205 85.9452 12.9975 84.4094 13.2253H84.4048Z" fill="black"/>
<path d="M69.6308 16.1818C69.6123 19.1568 67.2186 21.6004 64.336 21.5861C61.4627 21.5719 59.0597 19.0999 59.0505 16.1486C59.0413 13.1214 61.4534 10.6874 64.4237 10.7158C67.3431 10.749 69.6492 13.1641 69.6308 16.1771V16.1818ZM67.3708 16.1296C67.3708 14.4073 66.0702 13.055 64.4006 13.0313C62.6895 13.0123 61.3105 14.3978 61.3151 16.1439C61.3197 17.8662 62.7494 19.3039 64.4144 19.2707C66.0517 19.2375 67.3708 17.833 67.3662 16.1296H67.3708Z" fill="black"/>
<path d="M75.7342 10.7222C78.6491 10.7601 80.9506 13.1942 80.9275 16.2071C80.8998 19.1726 78.4877 21.6162 75.6051 21.5925C72.6856 21.5688 70.2781 19.0161 70.3426 16.0174C70.4118 13.0376 72.8055 10.6842 75.7342 10.7269V10.7222ZM75.6097 13.0376C73.9447 13.0566 72.621 14.4136 72.6118 16.1122C72.6026 17.8488 73.9908 19.2865 75.6697 19.2723C77.3439 19.2628 78.6999 17.8014 78.6583 16.0506C78.6214 14.3377 77.2839 13.0186 75.6097 13.0376Z" fill="black"/>
<path d="M70.0596 33.2233C69.7413 33.5412 69.4139 34.1486 69.0311 34.1865C68.5191 34.2387 67.9149 33.9303 67.4537 33.6171C67.0847 33.3657 66.9049 32.597 66.5728 32.5496C65.595 32.412 64.5849 32.4689 63.5933 32.5638C63.3766 32.5828 63.1598 33.062 63.0168 33.3609C62.6202 34.2102 61.9929 34.5708 61.1489 34.2055C60.2311 33.8117 60.2587 33.043 60.5908 32.2222C61.6931 29.4939 62.7862 26.7609 63.8931 24.0374C64.2252 23.2166 65.3506 23.0457 66.0101 23.748C66.2914 24.0516 66.4898 24.4549 66.6558 24.8488C67.6659 27.2354 68.6575 29.6268 69.6445 32.0181C69.7782 32.3408 69.8751 32.6824 70.0596 33.2233ZM66.3698 30.4002C65.9778 29.4038 65.6273 28.507 65.1568 27.3113C64.6864 28.5497 64.3543 29.4322 63.99 30.4002H66.3745H66.3698Z" fill="black"/>
<path d="M53.7882 13.1568V15.2208C54.6507 15.2208 55.4762 15.2302 56.3018 15.2208C57.1274 15.2065 57.81 15.458 57.8192 16.4212C57.833 17.4128 57.1551 17.7592 56.2788 17.7687C55.4855 17.7782 54.6876 17.7687 53.7421 17.7687C53.7421 18.6844 53.7421 19.4626 53.7421 20.2407C53.7375 21.0663 53.3962 21.6357 52.5429 21.6594C51.6297 21.6832 51.2377 21.0853 51.2238 20.2218C51.1869 17.3037 51.1593 14.3809 51.1916 11.4629C51.1916 11.2114 51.6712 10.7607 51.9387 10.7559C53.8943 10.6942 55.8498 10.7179 57.8054 10.7322C58.5156 10.7369 58.9907 11.1023 58.9953 11.8757C58.9999 12.6728 58.5802 13.1378 57.7915 13.152C56.4955 13.1757 55.1995 13.1568 53.779 13.1568H53.7882Z" fill="black"/>
<path d="M53.7453 31.6143C55.2996 31.6143 56.711 31.6286 58.1177 31.6143C59.0447 31.6049 59.7504 31.8753 59.7365 32.9714C59.7181 34.0105 59.0263 34.2382 58.1546 34.2287C56.3881 34.2097 54.6217 34.2382 52.8552 34.2192C51.7114 34.205 51.2317 33.7353 51.2179 32.5775C51.181 29.7354 51.1579 26.8885 51.1994 24.0464C51.1994 23.776 51.7114 23.3062 52.0112 23.2825C52.786 23.2208 53.6439 23.3347 53.7131 24.407C53.7869 25.5458 53.7453 26.6987 53.7453 27.8422C53.7453 29.0237 53.7453 30.2099 53.7453 31.6191V31.6143Z" fill="black"/>
<path d="M38.5367 6.90319C40.4553 6.90319 42.3786 6.87947 44.2972 6.90794C46.2343 6.93641 47.7702 8.16056 47.7794 10.1107C47.8025 14.3288 48.0054 18.6133 47.3689 22.746C46.1421 30.7363 38.7903 36.8855 30.9128 37.0326C27.3015 37.099 23.6902 37.0658 20.0789 37.0421C18.091 37.0326 16.5367 35.761 16.5275 33.7634C16.5045 29.626 16.3107 25.4221 16.9195 21.3606C18.1187 13.3087 25.309 7.17839 33.2327 6.91743C34.9992 6.86049 36.7656 6.90794 38.5321 6.90794C38.5321 6.90794 38.5321 6.89845 38.5321 6.8937L38.5367 6.90319ZM24.3497 35.1537C26.5359 35.1537 28.7313 35.2723 30.9082 35.1299C36.6918 34.7504 41.078 31.9604 44.0251 26.7981C46.4004 22.6322 46.0084 18.0582 45.9161 13.5269C45.9161 13.4985 45.81 13.47 45.7501 13.4368C42.2126 24.421 35.013 31.5524 24.3451 35.1537H24.3497ZM39.9941 8.80585C37.9463 8.80585 35.8939 8.74417 33.8461 8.81534C27.8365 9.02411 23.3304 11.852 20.291 17.1757C17.9112 21.3368 18.317 25.9108 18.4185 30.4421C18.4185 30.4706 18.5292 30.4943 18.5753 30.5133C22.1128 19.5338 29.2986 12.3977 39.9941 8.80585ZM20.3925 31.633C27.7627 24.5396 34.9208 17.6454 42.2033 10.6373C32.6562 12.0086 22.6709 21.1613 20.3925 31.633ZM43.8683 12.3882C36.5396 19.4437 29.4461 26.2762 22.1682 33.2842C31.9644 31.8655 41.8344 22.338 43.8683 12.3882Z" fill="black"/>
</svg>
