<svg width="170" height="39" viewBox="0 0 170 39" fill="none" xmlns="http://www.w3.org/2000/svg">
<rect width="170" height="38.3778" rx="19.1889" fill="white"/>
<path d="M23.4301 10.0084C24.5983 10.0084 25.7694 9.99395 26.9377 10.0113C28.1172 10.0286 29.0523 10.774 29.0579 11.9614C29.072 14.5298 29.1956 17.1386 28.808 19.655C28.061 24.5202 23.5845 28.2645 18.788 28.354C16.589 28.3945 14.3901 28.3742 12.1912 28.3598C10.9808 28.354 10.0344 27.5798 10.0288 26.3635C10.0148 23.8442 9.89684 21.2845 10.2675 18.8114C10.9977 13.9086 15.3759 10.176 20.2005 10.0171C21.2761 9.98239 22.3517 10.0113 23.4273 10.0113C23.4273 10.0113 23.4273 10.0055 23.4273 10.0026L23.4301 10.0084ZM14.7917 27.21C16.1229 27.21 17.4596 27.2822 18.7851 27.1955C22.3068 26.9644 24.9775 25.2656 26.772 22.1223C28.2183 19.5857 27.9796 16.8006 27.9234 14.0415C27.9234 14.0242 27.8588 14.0069 27.8223 13.9867C25.6683 20.6749 21.2845 25.0171 14.7889 27.21H14.7917ZM24.3175 11.1669C23.0706 11.1669 21.8209 11.1294 20.574 11.1727C16.9148 11.2998 14.1711 13.0217 12.3204 16.2632C10.8713 18.797 11.1185 21.582 11.1802 24.3411C11.1802 24.3584 11.2476 24.3729 11.2757 24.3844C13.4297 17.6991 17.805 13.3539 24.3175 11.1669ZM12.3822 25.0663C16.8699 20.7471 21.2284 16.5493 25.6627 12.2821C19.8495 13.117 13.7695 18.6901 12.3822 25.0663ZM26.6765 13.3482C22.2141 17.6442 17.8949 21.8045 13.4634 26.0717C19.4282 25.2078 25.438 19.4066 26.6765 13.3482Z" fill="#93A27C"/>
<path d="M34.981 15.1319V18.3471C36.3244 18.3471 37.6104 18.3619 38.8963 18.3471C40.1823 18.3249 41.2456 18.7167 41.2599 20.2171C41.2815 21.7619 40.2254 22.3015 38.8604 22.3162C37.6247 22.331 36.3819 22.3162 34.9091 22.3162C34.9091 23.7428 34.9091 24.9549 34.9091 26.1671C34.9019 27.4532 34.3703 28.3401 33.0412 28.3771C31.6188 28.414 31.0081 27.4827 30.9865 26.1375C30.9291 21.5919 30.886 17.0389 30.9363 12.4932C30.9363 12.1015 31.6834 11.3993 32.1001 11.3919C35.1462 11.2958 38.1923 11.3328 41.2384 11.355C42.3447 11.3624 43.0847 11.9315 43.0919 13.1363C43.0991 14.378 42.4453 15.1023 41.2168 15.1245C39.1981 15.1615 37.1793 15.1319 34.9666 15.1319H34.981Z" fill="#93A27C"/>
<path d="M61.3589 20.2044C61.3303 24.7036 57.6109 28.3991 53.1318 28.3776C48.6671 28.356 44.9333 24.6175 44.919 20.1541C44.9047 15.576 48.6527 11.8948 53.268 11.9379C57.8043 11.9881 61.3876 15.6406 61.3589 20.1972V20.2044ZM57.8473 20.1254C57.8473 17.5206 55.8264 15.4755 53.2321 15.4396C50.5734 15.4109 48.4306 17.5063 48.4377 20.147C48.4449 22.7518 50.6665 24.926 53.2536 24.8758C55.7977 24.8256 57.8473 22.7015 57.8402 20.1254H57.8473Z" fill="#93A27C"/>
<path d="M71.5605 11.3291C76.0872 11.3886 79.6612 15.2062 79.6254 19.9316C79.5825 24.5826 75.8365 28.4151 71.3599 28.3779C66.8261 28.3407 63.0872 24.3371 63.1875 19.634C63.295 14.9606 67.0123 11.2696 71.5605 11.3365V11.3291ZM71.3671 14.9606C68.7814 14.9904 66.7258 17.1187 66.7115 19.7828C66.6971 22.5064 68.853 24.7612 71.4602 24.7389C74.0602 24.724 76.166 22.432 76.1015 19.6861C76.0442 16.9996 73.9671 14.9309 71.3671 14.9606Z" fill="#93A27C"/>
<path d="M81.4847 19.3985C81.4847 17.1884 81.5503 14.9782 81.4555 12.7755C81.4117 11.6925 81.7985 11.3241 82.791 11.3389C84.7322 11.3683 86.688 11.2578 88.6219 11.4199C92.7086 11.7514 96.051 15.6044 96.0656 19.8332C96.0802 24.1429 92.6648 28.0033 88.4905 28.3054C86.9142 28.4232 85.3306 28.3643 83.7543 28.3569C82.2436 28.3496 81.5576 27.5023 81.5576 26.0289C81.5576 23.8188 81.5576 21.6086 81.5576 19.3985C81.5357 19.3985 81.5139 19.3985 81.4847 19.3985ZM85.5568 15.2361C85.5568 17.9619 85.5568 20.5257 85.5568 23.0894C85.5568 23.4431 85.6152 23.7967 85.659 24.2092C87.8994 24.5997 89.8406 24.3418 91.2345 22.3969C92.2999 20.9088 92.3145 18.7944 91.2564 17.2105C89.9282 15.2287 87.9943 14.8825 85.5641 15.2361H85.5568Z" fill="#93A27C"/>
<path d="M101.729 24.3109C104.051 24.3109 106.159 24.333 108.261 24.3109C109.646 24.2961 110.7 24.7168 110.679 26.4218C110.652 28.0382 109.618 28.3925 108.316 28.3777C105.677 28.3482 103.038 28.3925 100.399 28.363C98.6904 28.3408 97.9739 27.6101 97.9532 25.8092C97.8981 21.388 97.8636 16.9595 97.9256 12.5384C97.9256 12.1176 98.6904 11.3869 99.1383 11.35C100.296 11.2541 101.577 11.4312 101.681 13.0993C101.791 14.8707 101.729 16.6643 101.729 18.4431C101.729 20.2809 101.729 22.1261 101.729 24.3182V24.3109Z" fill="#93A27C"/>
<path d="M127.119 26.642C126.639 27.133 126.145 28.071 125.567 28.1296C124.794 28.2102 123.882 27.7339 123.186 27.2502C122.629 26.8618 122.357 25.6747 121.856 25.6014C120.38 25.3889 118.855 25.4768 117.358 25.6234C117.031 25.6527 116.703 26.3929 116.488 26.8545C115.889 28.1663 114.942 28.7232 113.668 28.1589C112.282 27.5507 112.324 26.3635 112.825 25.0958C114.489 20.8821 116.139 16.6611 117.81 12.4547C118.312 11.187 120.011 10.9231 121.006 12.0077C121.431 12.4767 121.73 13.0996 121.981 13.7078C123.506 17.3939 125.003 21.0873 126.493 24.7807C126.695 25.279 126.841 25.8066 127.119 26.642ZM121.549 22.2818C120.958 20.7429 120.428 19.3578 119.718 17.5111C119.008 19.4238 118.507 20.7868 117.957 22.2818H121.556H121.549Z" fill="#93A27C"/>
<path d="M140.058 20.7313C140.058 17.8886 140.129 15.6293 140.029 13.3847C139.979 12.3584 139.598 11.332 141.142 11.332C142.456 11.332 143.956 11.177 144.1 13.1189C144.215 14.6472 144.143 16.1904 144.143 17.7188C144.143 20.4802 144.229 23.2491 144.086 26.0031C144.042 26.771 143.454 27.9524 142.879 28.1296C142.169 28.3511 140.934 27.9967 140.395 27.4207C138.191 25.0875 136.173 22.5772 134.077 20.1332C133.897 19.9265 133.675 19.7566 133.1 19.225C133.1 21.6616 133.093 23.6625 133.1 25.6561C133.108 27.0737 132.828 28.2772 131.14 28.3732C129.74 28.4544 129.037 27.5315 129.015 25.6413C128.979 21.285 128.914 16.9214 128.965 12.5651C128.965 12.1442 129.776 11.3099 130.035 11.3837C131.126 11.6717 132.404 11.967 133.143 12.7349C135.434 15.1346 137.516 17.7483 140.05 20.7165L140.058 20.7313Z" fill="#93A27C"/>
<path d="M150.217 11.3796C152.484 11.189 154.962 11.4749 156.997 13.3366C159.608 15.7187 160.577 18.7018 159.664 22.2346C158.822 25.4816 156.106 27.9003 152.863 28.2521C151.354 28.4134 149.831 28.3767 148.308 28.3694C146.827 28.3694 146.054 27.5778 146.047 25.98C146.033 21.5236 145.963 17.0673 146.012 12.611C146.012 12.1932 146.665 11.5262 147.107 11.4382C148.006 11.255 148.967 11.3796 150.217 11.3796ZM149.957 24.1403C152.582 24.6827 154.4 24.0303 155.474 22.2419C156.443 20.6221 156.323 18.4819 155.179 16.9354C154 15.3522 152.147 14.8318 149.964 15.4988V24.1403H149.957Z" fill="#93A27C"/>
</svg>
