<svg width="116" height="40" viewBox="0 0 116 40" fill="none" xmlns="http://www.w3.org/2000/svg">
<rect width="116" height="40" rx="12" fill="#93A27C"/>
<path d="M22.7125 16.464C21.7525 16.464 21.0272 16.6773 20.5365 17.104C20.0458 17.5307 19.8005 18.16 19.8005 18.992V19.952H24.6805V21.712H19.8005V26H17.7205V18.992C17.7205 17.6373 18.1525 16.576 19.0165 15.808C19.8912 15.0293 21.0912 14.64 22.6165 14.64C23.2565 14.64 23.8538 14.7093 24.4085 14.848C24.9632 14.9867 25.4485 15.1893 25.8645 15.456L25.2085 17.152C24.5472 16.6933 23.7152 16.464 22.7125 16.464ZM30.7458 26.112C29.8818 26.112 29.1031 25.9253 28.4098 25.552C27.7164 25.1787 27.1724 24.6613 26.7778 24C26.3938 23.328 26.2018 22.5707 26.2018 21.728C26.2018 20.8853 26.3938 20.1333 26.7778 19.472C27.1724 18.8107 27.7164 18.2933 28.4098 17.92C29.1031 17.5467 29.8818 17.36 30.7458 17.36C31.6204 17.36 32.4044 17.5467 33.0978 17.92C33.7911 18.2933 34.3298 18.8107 34.7138 19.472C35.1084 20.1333 35.3058 20.8853 35.3058 21.728C35.3058 22.5707 35.1084 23.328 34.7138 24C34.3298 24.6613 33.7911 25.1787 33.0978 25.552C32.4044 25.9253 31.6204 26.112 30.7458 26.112ZM30.7458 24.4C31.4818 24.4 32.0898 24.1547 32.5698 23.664C33.0498 23.1733 33.2898 22.528 33.2898 21.728C33.2898 20.928 33.0498 20.2827 32.5698 19.792C32.0898 19.3013 31.4818 19.056 30.7458 19.056C30.0098 19.056 29.4018 19.3013 28.9218 19.792C28.4524 20.2827 28.2178 20.928 28.2178 21.728C28.2178 22.528 28.4524 23.1733 28.9218 23.664C29.4018 24.1547 30.0098 24.4 30.7458 24.4ZM41.0583 26.112C40.1943 26.112 39.4156 25.9253 38.7223 25.552C38.0289 25.1787 37.4849 24.6613 37.0903 24C36.7063 23.328 36.5143 22.5707 36.5143 21.728C36.5143 20.8853 36.7063 20.1333 37.0903 19.472C37.4849 18.8107 38.0289 18.2933 38.7223 17.92C39.4156 17.5467 40.1943 17.36 41.0583 17.36C41.9329 17.36 42.7169 17.5467 43.4103 17.92C44.1036 18.2933 44.6423 18.8107 45.0263 19.472C45.4209 20.1333 45.6183 20.8853 45.6183 21.728C45.6183 22.5707 45.4209 23.328 45.0263 24C44.6423 24.6613 44.1036 25.1787 43.4103 25.552C42.7169 25.9253 41.9329 26.112 41.0583 26.112ZM41.0583 24.4C41.7943 24.4 42.4023 24.1547 42.8823 23.664C43.3623 23.1733 43.6023 22.528 43.6023 21.728C43.6023 20.928 43.3623 20.2827 42.8823 19.792C42.4023 19.3013 41.7943 19.056 41.0583 19.056C40.3223 19.056 39.7143 19.3013 39.2343 19.792C38.7649 20.2827 38.5303 20.928 38.5303 21.728C38.5303 22.528 38.7649 23.1733 39.2343 23.664C39.7143 24.1547 40.3223 24.4 41.0583 24.4ZM55.8988 14.128V26H53.9788V24.896C53.6481 25.3013 53.2374 25.6053 52.7468 25.808C52.2668 26.0107 51.7334 26.112 51.1468 26.112C50.3254 26.112 49.5841 25.9307 48.9228 25.568C48.2721 25.2053 47.7601 24.6933 47.3868 24.032C47.0134 23.36 46.8268 22.592 46.8268 21.728C46.8268 20.864 47.0134 20.1013 47.3868 19.44C47.7601 18.7787 48.2721 18.2667 48.9228 17.904C49.5841 17.5413 50.3254 17.36 51.1468 17.36C51.7121 17.36 52.2294 17.456 52.6988 17.648C53.1681 17.84 53.5681 18.128 53.8988 18.512V14.128H55.8988ZM51.3868 24.4C51.8668 24.4 52.2988 24.2933 52.6828 24.08C53.0668 23.856 53.3708 23.5413 53.5948 23.136C53.8188 22.7307 53.9308 22.2613 53.9308 21.728C53.9308 21.1947 53.8188 20.7253 53.5948 20.32C53.3708 19.9147 53.0668 19.6053 52.6828 19.392C52.2988 19.168 51.8668 19.056 51.3868 19.056C50.9068 19.056 50.4748 19.168 50.0908 19.392C49.7068 19.6053 49.4028 19.9147 49.1788 20.32C48.9548 20.7253 48.8428 21.1947 48.8428 21.728C48.8428 22.2613 48.9548 22.7307 49.1788 23.136C49.4028 23.5413 49.7068 23.856 50.0908 24.08C50.4748 24.2933 50.9068 24.4 51.3868 24.4ZM58.7071 14.8H60.7871V24.24H66.6431V26H58.7071V14.8ZM76.3671 17.456V26H74.4631V24.896C74.1325 25.3013 73.7218 25.6053 73.2311 25.808C72.7511 26.0107 72.2178 26.112 71.6311 26.112C70.7991 26.112 70.0525 25.9307 69.3911 25.568C68.7405 25.2053 68.2285 24.6933 67.8551 24.032C67.4925 23.3707 67.3111 22.6027 67.3111 21.728C67.3111 20.8533 67.4925 20.0907 67.8551 19.44C68.2285 18.7787 68.7405 18.2667 69.3911 17.904C70.0525 17.5413 70.7991 17.36 71.6311 17.36C72.1858 17.36 72.6925 17.456 73.1511 17.648C73.6205 17.84 74.0258 18.1227 74.3671 18.496V17.456H76.3671ZM71.8551 24.4C72.5911 24.4 73.1991 24.1547 73.6791 23.664C74.1591 23.1733 74.3991 22.528 74.3991 21.728C74.3991 20.928 74.1591 20.2827 73.6791 19.792C73.1991 19.3013 72.5911 19.056 71.8551 19.056C71.1191 19.056 70.5111 19.3013 70.0311 19.792C69.5618 20.2827 69.3271 20.928 69.3271 21.728C69.3271 22.528 69.5618 23.1733 70.0311 23.664C70.5111 24.1547 71.1191 24.4 71.8551 24.4ZM83.8319 17.36C84.9092 17.36 85.7732 17.6747 86.4239 18.304C87.0745 18.9333 87.3999 19.8667 87.3999 21.104V26H85.3999V21.36C85.3999 20.6133 85.2239 20.0533 84.8719 19.68C84.5199 19.296 84.0185 19.104 83.3679 19.104C82.6319 19.104 82.0505 19.328 81.6239 19.776C81.1972 20.2133 80.9839 20.848 80.9839 21.68V26H78.9839V17.456H80.8879V18.56C81.2185 18.1653 81.6345 17.8667 82.1359 17.664C82.6372 17.4613 83.2025 17.36 83.8319 17.36ZM98.3831 14.128V26H96.4631V24.896C96.1325 25.3013 95.7218 25.6053 95.2311 25.808C94.7511 26.0107 94.2178 26.112 93.6311 26.112C92.8098 26.112 92.0685 25.9307 91.4071 25.568C90.7565 25.2053 90.2445 24.6933 89.8711 24.032C89.4978 23.36 89.3111 22.592 89.3111 21.728C89.3111 20.864 89.4978 20.1013 89.8711 19.44C90.2445 18.7787 90.7565 18.2667 91.4071 17.904C92.0685 17.5413 92.8098 17.36 93.6311 17.36C94.1965 17.36 94.7138 17.456 95.1831 17.648C95.6525 17.84 96.0525 18.128 96.3831 18.512V14.128H98.3831ZM93.8711 24.4C94.3511 24.4 94.7831 24.2933 95.1671 24.08C95.5511 23.856 95.8551 23.5413 96.0791 23.136C96.3031 22.7307 96.4151 22.2613 96.4151 21.728C96.4151 21.1947 96.3031 20.7253 96.0791 20.32C95.8551 19.9147 95.5511 19.6053 95.1671 19.392C94.7831 19.168 94.3511 19.056 93.8711 19.056C93.3911 19.056 92.9591 19.168 92.5751 19.392C92.1911 19.6053 91.8871 19.9147 91.6631 20.32C91.4391 20.7253 91.3271 21.1947 91.3271 21.728C91.3271 22.2613 91.4391 22.7307 91.6631 23.136C91.8871 23.5413 92.1911 23.856 92.5751 24.08C92.9591 24.2933 93.3911 24.4 93.8711 24.4Z" fill="white"/>
</svg>
