<svg width="48" height="49" viewBox="0 0 48 49" fill="none" xmlns="http://www.w3.org/2000/svg">
<rect x="0.5" y="1" width="47" height="47" rx="23.5" stroke="#ABABAB"/>
<path fill-rule="evenodd" clip-rule="evenodd" d="M23.3164 14.5305C20.578 14.7751 18.1734 16.6377 17.2026 19.2661C16.8392 20.25 16.6913 21.5078 16.8181 22.5359C17.1214 24.9953 18.8784 28.3966 21.7915 32.1638C22.4525 33.0187 23.4005 34.1569 23.5899 34.3232C23.8347 34.5382 24.173 34.5382 24.4178 34.3232C24.6072 34.1569 25.5551 33.0187 26.2162 32.1638C28.5009 29.2093 30.0827 26.4737 30.7935 24.2478C31.3009 22.659 31.3668 21.3657 31.0125 19.9496C30.6966 18.6868 30.0514 17.5598 29.104 16.616C27.5609 15.0787 25.4987 14.3356 23.3164 14.5305ZM23.4112 18.1375C21.984 18.3905 20.8872 19.3872 20.4805 20.8007C20.4047 21.0639 20.3917 21.2008 20.3917 21.7341C20.3917 22.2663 20.4049 22.4055 20.4805 22.6716C20.77 23.6911 21.4718 24.5313 22.4218 24.9959C23.4513 25.4993 24.5563 25.4993 25.5859 24.9959C26.5359 24.5313 27.2377 23.6911 27.5272 22.6716C27.6028 22.4055 27.6159 22.2663 27.6159 21.7341C27.6159 21.2008 27.6029 21.0639 27.5272 20.8007C27.3395 20.1486 27.025 19.6103 26.5657 19.1555C26.0766 18.6712 25.434 18.3159 24.795 18.1765C24.4113 18.0928 23.7661 18.0746 23.4112 18.1375Z" fill="#676767"/>
</svg>
