<svg width="139" height="23" viewBox="0 0 139 23" fill="none" xmlns="http://www.w3.org/2000/svg">
<path d="M1.46858 11.2244C1.46858 10.1909 1.64084 9.24026 1.98536 8.37258C2.32988 7.5049 2.80838 6.75844 3.42086 6.1332C4.03334 5.4952 4.76704 4.99756 5.62196 4.64028C6.48964 4.283 7.44026 4.10436 8.47382 4.10436C9.50738 4.10436 10.4516 4.283 11.3065 4.64028C12.1742 4.99756 12.9143 5.4952 13.5268 6.1332C14.1393 6.75844 14.6178 7.5049 14.9623 8.37258C15.3068 9.24026 15.4791 10.1909 15.4791 11.2244C15.4791 12.258 15.3068 13.215 14.9623 14.0954C14.6178 14.9631 14.1393 15.716 13.5268 16.354C12.9143 16.9792 12.1742 17.4705 11.3065 17.8277C10.4516 18.1723 9.50738 18.3445 8.47382 18.3445C7.44026 18.3445 6.48964 18.1723 5.62196 17.8277C4.76704 17.4705 4.03334 16.9792 3.42086 16.354C2.80838 15.716 2.32988 14.9631 1.98536 14.0954C1.64084 13.215 1.46858 12.258 1.46858 11.2244ZM2.73182 11.2244C2.73182 12.0666 2.8658 12.8513 3.13376 13.5787C3.40172 14.306 3.78452 14.9376 4.28216 15.4735C4.7798 16.0094 5.37952 16.4305 6.08132 16.7368C6.79588 17.043 7.59338 17.1961 8.47382 17.1961C9.35426 17.1961 10.1454 17.043 10.8472 16.7368C11.5617 16.4305 12.1678 16.0094 12.6655 15.4735C13.1631 14.9376 13.5459 14.306 13.8139 13.5787C14.0818 12.8513 14.2158 12.0666 14.2158 11.2244C14.2158 10.3823 14.0818 9.59754 13.8139 8.87022C13.5459 8.1429 13.1631 7.51128 12.6655 6.97536C12.1678 6.43944 11.5617 6.01836 10.8472 5.71212C10.1454 5.40588 9.35426 5.25276 8.47382 5.25276C7.59338 5.25276 6.79588 5.40588 6.08132 5.71212C5.37952 6.01836 4.7798 6.43944 4.28216 6.97536C3.78452 7.51128 3.40172 8.1429 3.13376 8.87022C2.8658 9.59754 2.73182 10.3823 2.73182 11.2244ZM6.52124 11.2244C6.52124 10.1909 6.6935 9.24026 7.03802 8.37258C7.38254 7.5049 7.86104 6.75844 8.47352 6.1332C9.086 5.4952 9.8197 4.99756 10.6746 4.64028C11.5423 4.283 12.4929 4.10436 13.5265 4.10436C14.56 4.10436 15.5043 4.283 16.3592 4.64028C17.2269 4.99756 17.967 5.4952 18.5794 6.1332C19.1919 6.75844 19.6704 7.5049 20.0149 8.37258C20.3595 9.24026 20.5317 10.1909 20.5317 11.2244C20.5317 12.258 20.3595 13.215 20.0149 14.0954C19.6704 14.9631 19.1919 15.716 18.5794 16.354C17.967 16.9792 17.2269 17.4705 16.3592 17.8277C15.5043 18.1723 14.56 18.3445 13.5265 18.3445C12.4929 18.3445 11.5423 18.1723 10.6746 17.8277C9.8197 17.4705 9.086 16.9792 8.47352 16.354C7.86104 15.716 7.38254 14.9631 7.03802 14.0954C6.6935 13.215 6.52124 12.258 6.52124 11.2244ZM7.78448 11.2244C7.78448 12.0666 7.91846 12.8513 8.18642 13.5787C8.45438 14.306 8.83718 14.9376 9.33482 15.4735C9.83246 16.0094 10.4322 16.4305 11.134 16.7368C11.8485 17.043 12.646 17.1961 13.5265 17.1961C14.4069 17.1961 15.198 17.043 15.8998 16.7368C16.6144 16.4305 17.2205 16.0094 17.7181 15.4735C18.2158 14.9376 18.5986 14.306 18.8665 13.5787C19.1345 12.8513 19.2685 12.0666 19.2685 11.2244C19.2685 10.3823 19.1345 9.59754 18.8665 8.87022C18.5986 8.1429 18.2158 7.51128 17.7181 6.97536C17.2205 6.43944 16.6144 6.01836 15.8998 5.71212C15.198 5.40588 14.4069 5.25276 13.5265 5.25276C12.646 5.25276 11.8485 5.40588 11.134 5.71212C10.4322 6.01836 9.83246 6.43944 9.33482 6.97536C8.83718 7.51128 8.45438 8.1429 8.18642 8.87022C7.91846 9.59754 7.78448 10.3823 7.78448 11.2244Z" fill="white"/>
<path d="M29.148 6.088H31.836L34.482 13.032L37.156 6.088H39.816V16H38.136V7.768H38.108L35.098 16H33.866L30.856 7.768H30.828V16H29.148V6.088ZM41.5349 11.086C41.5349 10.2927 41.6656 9.574 41.9269 8.93C42.1883 8.27667 42.5476 7.72133 43.0049 7.264C43.4716 6.80667 44.0223 6.45667 44.6569 6.214C45.3009 5.962 46.0056 5.836 46.7709 5.836C47.5456 5.82667 48.2549 5.94333 48.8989 6.186C49.5429 6.41933 50.0983 6.76467 50.5649 7.222C51.0316 7.67933 51.3956 8.23 51.6569 8.874C51.9183 9.518 52.0489 10.2367 52.0489 11.03C52.0489 11.8047 51.9183 12.5093 51.6569 13.144C51.3956 13.7787 51.0316 14.3247 50.5649 14.782C50.0983 15.2393 49.5429 15.5987 48.8989 15.86C48.2549 16.112 47.5456 16.2427 46.7709 16.252C46.0056 16.252 45.3009 16.1307 44.6569 15.888C44.0223 15.636 43.4716 15.286 43.0049 14.838C42.5476 14.3807 42.1883 13.8347 41.9269 13.2C41.6656 12.5653 41.5349 11.8607 41.5349 11.086ZM43.3829 10.974C43.3829 11.506 43.4623 11.996 43.6209 12.444C43.7889 12.892 44.0223 13.2793 44.3209 13.606C44.6196 13.9327 44.9743 14.1893 45.3849 14.376C45.8049 14.5627 46.2716 14.656 46.7849 14.656C47.2983 14.656 47.7649 14.5627 48.1849 14.376C48.6049 14.1893 48.9643 13.9327 49.2629 13.606C49.5616 13.2793 49.7903 12.892 49.9489 12.444C50.1169 11.996 50.2009 11.506 50.2009 10.974C50.2009 10.4793 50.1169 10.0173 49.9489 9.588C49.7903 9.15867 49.5616 8.78533 49.2629 8.468C48.9643 8.14133 48.6049 7.88933 48.1849 7.712C47.7649 7.52533 47.2983 7.432 46.7849 7.432C46.2716 7.432 45.8049 7.52533 45.3849 7.712C44.9743 7.88933 44.6196 8.14133 44.3209 8.468C44.0223 8.78533 43.7889 9.15867 43.6209 9.588C43.4623 10.0173 43.3829 10.4793 43.3829 10.974ZM53.197 11.086C53.197 10.2927 53.3277 9.574 53.589 8.93C53.8504 8.27667 54.2097 7.72133 54.667 7.264C55.1337 6.80667 55.6844 6.45667 56.319 6.214C56.963 5.962 57.6677 5.836 58.433 5.836C59.2077 5.82667 59.917 5.94333 60.561 6.186C61.205 6.41933 61.7604 6.76467 62.227 7.222C62.6937 7.67933 63.0577 8.23 63.319 8.874C63.5804 9.518 63.711 10.2367 63.711 11.03C63.711 11.8047 63.5804 12.5093 63.319 13.144C63.0577 13.7787 62.6937 14.3247 62.227 14.782C61.7604 15.2393 61.205 15.5987 60.561 15.86C59.917 16.112 59.2077 16.2427 58.433 16.252C57.6677 16.252 56.963 16.1307 56.319 15.888C55.6844 15.636 55.1337 15.286 54.667 14.838C54.2097 14.3807 53.8504 13.8347 53.589 13.2C53.3277 12.5653 53.197 11.8607 53.197 11.086ZM55.045 10.974C55.045 11.506 55.1244 11.996 55.283 12.444C55.451 12.892 55.6844 13.2793 55.983 13.606C56.2817 13.9327 56.6364 14.1893 57.047 14.376C57.467 14.5627 57.9337 14.656 58.447 14.656C58.9604 14.656 59.427 14.5627 59.847 14.376C60.267 14.1893 60.6264 13.9327 60.925 13.606C61.2237 13.2793 61.4524 12.892 61.611 12.444C61.779 11.996 61.863 11.506 61.863 10.974C61.863 10.4793 61.779 10.0173 61.611 9.588C61.4524 9.15867 61.2237 8.78533 60.925 8.468C60.6264 8.14133 60.267 7.88933 59.847 7.712C59.427 7.52533 58.9604 7.432 58.447 7.432C57.9337 7.432 57.467 7.52533 57.047 7.712C56.6364 7.88933 56.2817 8.14133 55.983 8.468C55.6844 8.78533 55.451 9.15867 55.283 9.588C55.1244 10.0173 55.045 10.4793 55.045 10.974ZM65.3912 6.088H68.8352C69.3112 6.088 69.7685 6.13467 70.2072 6.228C70.6552 6.312 71.0518 6.46133 71.3972 6.676C71.7425 6.89067 72.0178 7.18 72.2232 7.544C72.4285 7.908 72.5312 8.37 72.5312 8.93C72.5312 9.64867 72.3305 10.2507 71.9292 10.736C71.5372 11.2213 70.9725 11.5153 70.2352 11.618L72.8672 16H70.7392L68.4432 11.8H67.1552V16H65.3912V6.088ZM68.5272 10.288C68.7792 10.288 69.0312 10.2787 69.2832 10.26C69.5352 10.232 69.7638 10.176 69.9692 10.092C70.1838 9.99867 70.3565 9.86333 70.4872 9.686C70.6178 9.49933 70.6832 9.24267 70.6832 8.916C70.6832 8.62667 70.6225 8.39333 70.5012 8.216C70.3798 8.03867 70.2212 7.908 70.0252 7.824C69.8292 7.73067 69.6098 7.67 69.3672 7.642C69.1338 7.614 68.9052 7.6 68.6812 7.6H67.1552V10.288H68.5272ZM74.2095 6.088H80.7755V7.684H75.9735V10.12H80.5235V11.716H75.9735V14.404H81.0275V16H74.2095V6.088ZM91.7687 8.216C91.582 7.94533 91.33 7.74933 91.0127 7.628C90.7047 7.49733 90.378 7.432 90.0327 7.432C89.8274 7.432 89.6267 7.45533 89.4307 7.502C89.244 7.54867 89.0714 7.62333 88.9127 7.726C88.7634 7.82867 88.642 7.964 88.5487 8.132C88.4554 8.29067 88.4087 8.482 88.4087 8.706C88.4087 9.042 88.5254 9.29867 88.7587 9.476C88.992 9.65333 89.2814 9.80733 89.6267 9.938C89.972 10.0687 90.35 10.1947 90.7607 10.316C91.1714 10.4373 91.5494 10.6053 91.8947 10.82C92.24 11.0347 92.5294 11.3193 92.7627 11.674C92.996 12.0287 93.1127 12.5 93.1127 13.088C93.1127 13.62 93.0147 14.0867 92.8187 14.488C92.6227 14.88 92.3567 15.2067 92.0207 15.468C91.694 15.7293 91.3114 15.9253 90.8727 16.056C90.434 16.1867 89.972 16.252 89.4867 16.252C88.8707 16.252 88.278 16.1493 87.7087 15.944C87.1394 15.7387 86.6494 15.3933 86.2387 14.908L87.5687 13.62C87.7834 13.9467 88.0634 14.2033 88.4087 14.39C88.7634 14.5673 89.1367 14.656 89.5287 14.656C89.734 14.656 89.9394 14.628 90.1447 14.572C90.35 14.516 90.5367 14.432 90.7047 14.32C90.8727 14.208 91.008 14.068 91.1107 13.9C91.2134 13.7227 91.2647 13.522 91.2647 13.298C91.2647 12.934 91.148 12.654 90.9147 12.458C90.6814 12.262 90.392 12.0987 90.0467 11.968C89.7014 11.828 89.3234 11.6973 88.9127 11.576C88.502 11.4547 88.124 11.2913 87.7787 11.086C87.4334 10.8713 87.144 10.5913 86.9107 10.246C86.6774 9.89133 86.5607 9.42 86.5607 8.832C86.5607 8.31867 86.6634 7.87533 86.8687 7.502C87.0834 7.12867 87.3587 6.82067 87.6947 6.578C88.04 6.326 88.432 6.13933 88.8707 6.018C89.3094 5.89667 89.7574 5.836 90.2147 5.836C90.7374 5.836 91.2414 5.91533 91.7267 6.074C92.2214 6.23267 92.6647 6.494 93.0567 6.858L91.7687 8.216ZM96.9798 7.684H93.9418V6.088H101.782V7.684H98.7438V16H96.9798V7.684ZM110.927 12.36C110.927 12.9573 110.824 13.4987 110.619 13.984C110.413 14.46 110.133 14.866 109.779 15.202C109.424 15.538 109.004 15.7993 108.519 15.986C108.033 16.1633 107.506 16.252 106.937 16.252C106.367 16.252 105.84 16.1633 105.355 15.986C104.869 15.7993 104.445 15.538 104.081 15.202C103.726 14.866 103.446 14.46 103.241 13.984C103.045 13.4987 102.947 12.9573 102.947 12.36V6.088H104.711V12.304C104.711 12.5467 104.748 12.8033 104.823 13.074C104.897 13.3353 105.019 13.578 105.187 13.802C105.364 14.026 105.593 14.2127 105.873 14.362C106.162 14.502 106.517 14.572 106.937 14.572C107.357 14.572 107.707 14.502 107.987 14.362C108.276 14.2127 108.505 14.026 108.673 13.802C108.85 13.578 108.976 13.3353 109.051 13.074C109.125 12.8033 109.163 12.5467 109.163 12.304V6.088H110.927V12.36ZM113.092 6.088H116.998C117.652 6.088 118.282 6.19067 118.888 6.396C119.495 6.592 120.032 6.89533 120.498 7.306C120.965 7.71667 121.338 8.23467 121.618 8.86C121.898 9.476 122.038 10.204 122.038 11.044C122.038 11.8933 121.875 12.6307 121.548 13.256C121.231 13.872 120.816 14.3853 120.302 14.796C119.798 15.1973 119.234 15.5007 118.608 15.706C117.992 15.902 117.386 16 116.788 16H113.092V6.088ZM116.172 14.404C116.723 14.404 117.241 14.3433 117.726 14.222C118.221 14.0913 118.65 13.8953 119.014 13.634C119.378 13.3633 119.663 13.018 119.868 12.598C120.083 12.1687 120.19 11.6507 120.19 11.044C120.19 10.4467 120.097 9.93333 119.91 9.504C119.724 9.07467 119.462 8.72933 119.126 8.468C118.8 8.19733 118.408 8.00133 117.95 7.88C117.502 7.74933 117.008 7.684 116.466 7.684H114.856V14.404H116.172ZM123.673 6.088H125.437V16H123.673V6.088ZM127.08 11.086C127.08 10.2927 127.211 9.574 127.472 8.93C127.733 8.27667 128.093 7.72133 128.55 7.264C129.017 6.80667 129.567 6.45667 130.202 6.214C130.846 5.962 131.551 5.836 132.316 5.836C133.091 5.82667 133.8 5.94333 134.444 6.186C135.088 6.41933 135.643 6.76467 136.11 7.222C136.577 7.67933 136.941 8.23 137.202 8.874C137.463 9.518 137.594 10.2367 137.594 11.03C137.594 11.8047 137.463 12.5093 137.202 13.144C136.941 13.7787 136.577 14.3247 136.11 14.782C135.643 15.2393 135.088 15.5987 134.444 15.86C133.8 16.112 133.091 16.2427 132.316 16.252C131.551 16.252 130.846 16.1307 130.202 15.888C129.567 15.636 129.017 15.286 128.55 14.838C128.093 14.3807 127.733 13.8347 127.472 13.2C127.211 12.5653 127.08 11.8607 127.08 11.086ZM128.928 10.974C128.928 11.506 129.007 11.996 129.166 12.444C129.334 12.892 129.567 13.2793 129.866 13.606C130.165 13.9327 130.519 14.1893 130.93 14.376C131.35 14.5627 131.817 14.656 132.33 14.656C132.843 14.656 133.31 14.5627 133.73 14.376C134.15 14.1893 134.509 13.9327 134.808 13.606C135.107 13.2793 135.335 12.892 135.494 12.444C135.662 11.996 135.746 11.506 135.746 10.974C135.746 10.4793 135.662 10.0173 135.494 9.588C135.335 9.15867 135.107 8.78533 134.808 8.468C134.509 8.14133 134.15 7.88933 133.73 7.712C133.31 7.52533 132.843 7.432 132.33 7.432C131.817 7.432 131.35 7.52533 130.93 7.712C130.519 7.88933 130.165 8.14133 129.866 8.468C129.567 8.78533 129.334 9.15867 129.166 9.588C129.007 10.0173 128.928 10.4793 128.928 10.974Z" fill="white"/>
</svg>
