<svg width="97" height="93" viewBox="0 0 97 93" fill="none" xmlns="http://www.w3.org/2000/svg">
<path d="M29.7696 92.3796C23.9214 92.4163 18.0596 92.5253 12.2108 92.4752C6.30586 92.4255 1.60107 88.7235 1.53568 82.7796C1.38475 69.9229 0.68429 56.8671 2.54532 44.2581C6.13207 19.8798 28.4233 0.995821 52.4319 0.396905C63.4382 0.125392 74.4464 0.157608 85.4545 0.160885C91.5137 0.151809 96.2757 3.99805 96.342 10.0866C96.4913 22.6975 97.1621 35.5075 95.3841 47.8991C91.8829 72.4649 70.0833 91.2879 45.9363 92.2348C40.5531 92.4421 35.1679 92.3313 29.7836 92.365C29.7836 92.365 29.7838 92.394 29.7839 92.4084L29.7696 92.3796ZM72.4727 5.9986C65.8091 6.04039 59.1151 5.7208 52.4823 6.19629C34.8606 7.46384 21.5446 16.0516 12.6601 31.8432C5.49972 44.5867 6.78211 58.521 7.14989 72.331C7.15043 72.4178 7.47432 72.5025 7.6577 72.6026C18.2304 39.0543 40.0389 17.1795 72.4867 5.99851L72.4727 5.9986ZM25.2909 86.608C31.5327 86.5688 37.7898 86.7176 44.0303 86.4615C62.3441 85.7103 76.0249 77.0045 85.1875 60.7195C92.362 47.9904 91.0375 34.0563 90.6416 20.2465C90.641 20.1597 90.3032 20.0895 90.1622 20.0326C79.5895 53.5664 57.8232 75.4554 25.2909 86.608ZM84.6019 16.6541C62.2725 38.4165 40.5859 59.5673 18.522 81.0677C47.5963 76.7055 77.8573 48.6165 84.6019 16.6541ZM13.4135 75.7628C35.6171 54.117 57.108 33.1554 79.1579 11.6551C49.3254 16.1667 19.423 45.3961 13.4135 75.7628Z" fill="#93A27C"/>
</svg>
