	<svg width="33" height="33" viewBox="0 0 33 33" fill="none" xmlns="http://www.w3.org/2000/svg">
<rect x="0.392857" y="0.392857" width="32.2143" height="32.2143" rx="5.10714" fill="#A8BE6E"/>
<rect x="0.392857" y="0.392857" width="32.2143" height="32.2143" rx="5.10714" stroke="#A8BE6E" stroke-width="0.785714"/>
<path d="M15.6922 9.19948C16.0586 8.59057 16.9414 8.59057 17.3078 9.19948L19.1389 12.2421C19.2706 12.4608 19.4853 12.6169 19.734 12.6745L23.1935 13.4757C23.8859 13.636 24.1587 14.4756 23.6928 15.0123L21.365 17.694C21.1976 17.8868 21.1156 18.1392 21.1376 18.3936L21.4447 21.9314C21.5061 22.6394 20.7919 23.1583 20.1376 22.881L16.8678 21.4958C16.6327 21.3962 16.3673 21.3962 16.1322 21.4958L12.8624 22.881C12.2081 23.1583 11.4939 22.6394 11.5553 21.9314L11.8624 18.3936C11.8844 18.1392 11.8024 17.8868 11.635 17.694L9.30718 15.0123C8.84131 14.4756 9.11411 13.636 9.80646 13.4757L13.266 12.6745C13.5147 12.6169 13.7294 12.4608 13.8611 12.2421L15.6922 9.19948Z" fill="white" stroke="white" stroke-width="1.17857"/>
</svg>
