<svg width="33" height="32" viewBox="0 0 33 32" fill="none" xmlns="http://www.w3.org/2000/svg">
<rect x="0.5" width="32" height="32" rx="16" fill="#8CA350"/>
<path d="M24.98 11.92C24.42 12.16 23.78 12.32 23.14 12.4C23.78 12 24.34 11.36 24.58 10.64C23.94 11.04 23.3 11.28 22.5 11.44C21.94 10.8 21.06 10.4 20.18 10.4C18.42 10.4 16.98 11.84 16.98 13.6C16.98 13.84 16.98 14.08 17.06 14.32C14.42 14.16 12.02 12.88 10.42 10.96C10.18 11.44 10.02 12 10.02 12.56C10.02 13.68 10.58 14.64 11.46 15.2C10.9 15.2 10.42 15.04 10.02 14.8C10.02 16.32 11.14 17.68 12.58 17.92C12.34 18 12.02 18 11.7 18C11.46 18 11.3 18 11.06 17.92C11.46 19.2 12.66 20.16 14.1 20.16C12.98 21.04 11.62 21.52 10.1 21.52C9.85999 21.52 9.61999 21.52 9.29999 21.44C10.74 22.32 12.42 22.88 14.26 22.88C20.18 22.88 23.38 18 23.38 13.76V13.36C24.02 13.12 24.58 12.56 24.98 11.92Z" fill="white"/>
</svg>
